<?xml version="1.0" encoding="UTF-8" standalone="no"?>
<svg
   xmlns:dc="http://purl.org/dc/elements/1.1/"
   xmlns:cc="http://creativecommons.org/ns#"
   xmlns:rdf="http://www.w3.org/1999/02/22-rdf-syntax-ns#"
   xmlns:svg="http://www.w3.org/2000/svg"
   xmlns="http://www.w3.org/2000/svg"
   xmlns:sodipodi="http://sodipodi.sourceforge.net/DTD/sodipodi-0.dtd"
   xmlns:inkscape="http://www.inkscape.org/namespaces/inkscape"
   width="512"
   height="512"
   viewBox="0 0 135.46666 135.46667"
   version="1.1"
   id="svg8"
   inkscape:version="1.0.2 (1.0.2+r75+1)"
   sodipodi:docname="Deutsche_Gesellschaft_für_Internationale_Zusammenarbeit_Logo.svg">
  <defs
     id="defs2" />
  <sodipodi:namedview
     id="base"
     pagecolor="#ffffff"
     bordercolor="#666666"
     borderopacity="1.0"
     inkscape:pageopacity="0.0"
     inkscape:pageshadow="2"
     inkscape:zoom="0.35"
     inkscape:cx="400"
     inkscape:cy="560"
     inkscape:document-units="mm"
     inkscape:current-layer="layer1"
     inkscape:document-rotation="0"
     showgrid="false"
     units="px"
     inkscape:window-width="1848"
     inkscape:window-height="1016"
     inkscape:window-x="72"
     inkscape:window-y="27"
     inkscape:window-maximized="1" />
  <metadata
     id="metadata5">
    <rdf:RDF>
      <cc:Work
         rdf:about="">
        <dc:format>image/svg+xml</dc:format>
        <dc:type
           rdf:resource="http://purl.org/dc/dcmitype/StillImage" />
        <dc:title></dc:title>
      </cc:Work>
    </rdf:RDF>
  </metadata>
  <g
     inkscape:label="Layer 1"
     inkscape:groupmode="layer"
     id="layer1">
    <g
       inkscape:label="Ebene 1"
       id="layer1-6"
       transform="matrix(3.7735965,0,0,3.7735965,-1104.5451,-2009.1862)">
      <g
         id="g290"
         transform="matrix(1.25,0,0,-1.25,302.31095,556.3896)">
        <path
           inkscape:connector-curvature="0"
           d="m 0,0 c -0.071,-0.045 -0.145,-0.105 -0.22,-0.168 l -0.021,-0.017 c -0.015,-0.011 -0.03,-0.023 -0.045,-0.034 -0.015,-0.012 -0.031,-0.023 -0.047,-0.034 -0.016,-0.012 -0.032,-0.023 -0.049,-0.034 -0.016,-0.011 -0.033,-0.022 -0.05,-0.032 -0.017,-0.011 -0.035,-0.022 -0.053,-0.032 -0.017,-0.011 -0.035,-0.021 -0.054,-0.031 -0.018,-0.01 -0.036,-0.02 -0.055,-0.03 -0.019,-0.01 -0.038,-0.019 -0.057,-0.029 -0.02,-0.009 -0.039,-0.018 -0.059,-0.027 -0.02,-0.009 -0.04,-0.018 -0.06,-0.027 -0.02,-0.008 -0.041,-0.017 -0.061,-0.025 -0.02,-0.008 -0.04,-0.015 -0.061,-0.023 -0.02,-0.007 -0.04,-0.014 -0.06,-0.021 -0.02,-0.006 -0.04,-0.013 -0.06,-0.019 -0.02,-0.006 -0.04,-0.012 -0.06,-0.017 -0.02,-0.006 -0.039,-0.011 -0.059,-0.016 -0.02,-0.005 -0.039,-0.01 -0.059,-0.014 -0.019,-0.004 -0.038,-0.008 -0.057,-0.012 -0.02,-0.003 -0.039,-0.007 -0.058,-0.01 -0.23,-0.04 -0.47,-0.06 -0.717,-0.062 h -0.183 c -1.195,0.029 -2.191,0.421 -2.99,1.177 -0.798,0.756 -1.212,1.703 -1.243,2.842 v 4.479 c 0.031,1.139 0.445,2.086 1.243,2.842 0.799,0.755 1.795,1.148 2.99,1.176 h 0.235 c 0.226,-0.004 0.437,-0.019 0.633,-0.046 l 0.057,-0.009 c 0.02,-0.004 0.039,-0.007 0.059,-0.011 0.02,-0.004 0.04,-0.008 0.06,-0.013 0.02,-0.004 0.04,-0.009 0.061,-0.014 0.02,-0.005 0.04,-0.01 0.061,-0.016 0.02,-0.006 0.041,-0.012 0.061,-0.018 0.021,-0.006 0.041,-0.013 0.062,-0.02 0.021,-0.007 0.041,-0.014 0.062,-0.021 0.021,-0.008 0.041,-0.016 0.061,-0.024 0.021,-0.008 0.041,-0.016 0.06,-0.024 0.02,-0.008 0.04,-0.017 0.059,-0.026 0.019,-0.009 0.038,-0.018 0.057,-0.027 0.019,-0.009 0.037,-0.018 0.056,-0.028 0.018,-0.009 0.036,-0.019 0.054,-0.029 0.017,-0.009 0.035,-0.019 0.052,-0.029 l 0.016,-0.01 0.022,-0.014 0.022,-0.015 0.023,-0.014 0.021,-0.015 0.021,-0.015 0.021,-0.015 0.021,-0.014 0.02,-0.016 0.02,-0.015 0.019,-0.015 0.019,-0.015 0.019,-0.016 0.018,-0.015 0.018,-0.016 0.017,-0.016 0.017,-0.015 0.017,-0.016 c 0,0 0.015,-0.015 0.034,-0.028 0.012,-0.007 0.021,-0.012 0.03,-0.016 0.014,-0.006 0.027,-0.01 0.042,-0.013 0.014,-0.003 0.029,-0.004 0.045,-0.004 0.015,0 0.03,10e-4 0.044,0.004 0.015,0.003 0.028,0.008 0.042,0.013 0.013,0.006 0.025,0.013 0.037,0.021 0.012,0.008 0.023,0.017 0.033,0.027 0.01,0.01 0.019,0.021 0.027,0.032 0.008,0.012 0.015,0.025 0.02,0.038 0.006,0.013 0.01,0.027 0.013,0.041 0.003,0.015 0.006,0.03 0.006,0.045 -0.002,0.147 -0.005,0.348 0.161,0.397 0.099,0.029 0.22,0.015 0.319,0.015 h 0.986 0.526 c 0.154,0 0.386,0.038 0.45,-0.151 0.048,-0.14 0.016,-0.433 0.016,-0.583 V 8.928 4.037 L 2.726,1.468 c 0,-0.848 0.034,-1.705 -0.061,-2.55 -0.267,-2.355 -1.444,-4.356 -3.935,-4.795 -1.508,-0.265 -3.011,0.272 -4.175,1.233 -0.142,0.117 -0.438,0.314 -0.426,0.516 0.005,0.071 0.039,0.137 0.086,0.19 0,0 0.966,1.021 1.036,1.11 0.069,0.076 0.165,0.185 0.272,0.185 0.152,-0.001 0.311,-0.143 0.587,-0.305 0.47,-0.276 0.974,-0.529 1.51,-0.609 0.339,-0.051 0.708,-0.004 1.033,0.101 1.263,0.409 1.613,2.004 1.686,3.254 v 0.021 c 0,0.008 0,0.015 -0.001,0.022 C 0.337,-0.151 0.336,-0.144 0.335,-0.137 0.333,-0.13 0.331,-0.123 0.329,-0.116 0.327,-0.109 0.325,-0.102 0.322,-0.096 0.319,-0.089 0.316,-0.083 0.313,-0.077 0.31,-0.071 0.306,-0.065 0.302,-0.059 0.298,-0.053 0.294,-0.047 0.289,-0.042 0.285,-0.037 0.28,-0.032 0.275,-0.027 0.27,-0.022 0.265,-0.017 0.26,-0.013 0.255,-0.008 0.249,-0.004 0.243,0 0.237,0.004 0.231,0.008 0.225,0.011 0.219,0.014 0.213,0.017 0.206,0.02 0.2,0.023 0.193,0.025 0.186,0.027 0.179,0.03 0.172,0.031 0.165,0.033 0.158,0.034 0.151,0.035 0.143,0.036 0.136,0.037 0.129,0.037 0.121,0.037 0.114,0.037 0.106,0.037 0.099,0.036 0.092,0.035 0.084,0.034 0.077,0.033 0.07,0.031 0.063,0.03 0.056,0.027 0.049,0.025 0.043,0.023 0.036,0.02 0.03,0.017 0.006,0.004 0,0 M 0.265,3.272 V 7.768 C 0.246,8.366 0.03,8.739 -0.385,9.074 -0.799,9.408 -1.188,9.579 -1.777,9.584 H -2.005 C -2.617,9.57 -3.017,9.369 -3.429,8.983 -3.842,8.597 -4.056,8.206 -4.072,7.623 V 3.465 c 0.016,-0.582 0.23,-0.973 0.643,-1.359 0.412,-0.386 0.812,-0.587 1.424,-0.601 h 0.228 c 0.589,0.008 0.978,0.179 1.392,0.513 0.415,0.334 0.631,0.69 0.65,1.254"
           style="fill:#da1c23;fill-opacity:1;fill-rule:nonzero;stroke:none"
           id="path292" />
      </g>
      <g
         id="g294"
         transform="matrix(1.25,0,0,-1.25,327.0422,556.9211)">
        <path
           inkscape:connector-curvature="0"
           d="M 0,0 V 1.644 C -0.001,1.74 -0.026,1.809 -0.076,1.853 -0.125,1.897 -0.191,1.919 -0.274,1.918 h -4.528 c -0.109,0.001 -0.186,0.02 -0.233,0.059 -0.042,0.037 -0.072,0.083 -0.072,0.154 -0.003,0.065 0.025,0.145 0.058,0.199 l 4.961,9.363 c 0.014,0.028 0.027,0.06 0.038,0.096 0.011,0.035 0.016,0.067 0.017,0.096 -0.005,0.141 -0.105,0.214 -0.302,0.219 H -8.462 C -8.649,12.108 -8.741,12.017 -8.736,11.83 V 10.185 C -8.741,9.998 -8.649,9.907 -8.462,9.911 h 4.245 c 0.096,0 0.174,-0.017 0.226,-0.055 C -3.939,9.817 -3.916,9.761 -3.915,9.692 -3.916,9.663 -3.922,9.631 -3.932,9.596 -3.943,9.56 -3.956,9.528 -3.97,9.5 L -8.983,0.137 C -8.997,0.109 -9.01,0.077 -9.021,0.041 -9.032,0.006 -9.037,-0.026 -9.038,-0.055 c 0.004,-0.141 0.105,-0.214 0.302,-0.219 h 8.462 c 0.095,-0.001 0.165,0.021 0.209,0.065 C -0.021,-0.165 0,-0.095 0,0"
           style="fill:#da1c23;fill-opacity:1;fill-rule:nonzero;stroke:none"
           id="path296" />
      </g>
      <g
         id="g298"
         transform="matrix(1.25,0,0,-1.25,309.4702,539.80247)">
        <path
           inkscape:connector-curvature="0"
           d="M 0,0 C 0.008,-0.09 0.035,-0.16 0.081,-0.207 0.135,-0.261 0.218,-0.289 0.33,-0.292 h 1.711 c 0.112,0.003 0.195,0.031 0.249,0.085 0.046,0.046 0.08,0.115 0.08,0.204 0,0 0,0.048 0,0.05 V 1.948 C 2.367,2.061 2.341,2.147 2.287,2.201 2.233,2.255 2.15,2.283 2.038,2.287 H 1.902 C 1.796,2.287 1.707,2.264 1.609,2.16 L 0.173,0.557 0.104,0.476 C 0.027,0.387 -0.002,0.312 -0.002,0.216 V 0.047 C -0.002,0.033 0,0 0,0"
           style="fill:#da1c23;fill-opacity:1;fill-rule:nonzero;stroke:none"
           id="path300" />
      </g>
      <g
         id="g302"
         transform="matrix(1.25,0,0,-1.25,312.41833,542.14472)">
        <path
           inkscape:connector-curvature="0"
           d="M 0,0 C 0,0.097 -0.024,0.173 -0.068,0.22 -0.116,0.269 -0.192,0.294 -0.295,0.293 H -2.076 C -2.179,0.292 -2.254,0.263 -2.302,0.208 -2.347,0.156 -2.372,0.087 -2.372,0 v -0.049 l -0.001,-6.691 0.002,-5.062 c 0,-0.097 0.024,-0.173 0.069,-0.22 0.047,-0.049 0.123,-0.073 0.226,-0.073 h 1.781 c 0.103,0.001 0.179,0.03 0.226,0.085 0.045,0.052 0.069,0.121 0.069,0.208 z"
           style="fill:#da1c23;fill-opacity:1;fill-rule:nonzero;stroke:none"
           id="path304" />
      </g>
      <g
         id="g306"
         transform="matrix(1.25,0,0,-1.25,397.65446,553.76548)" />
      <g
         id="g310"
         transform="matrix(1.25,0,0,-1.25,372.7467,549.91372)" />
      <g
         id="g314"
         transform="matrix(1.25,0,0,-1.25,384.26558,545.1686)" />
    </g>
  </g>
</svg>
