<svg width="24" height="24" viewBox="0 0 24 24" fill="none" xmlns="http://www.w3.org/2000/svg">
<path d="M23.9073 4.14459L21.9074 1.74463C21.8313 1.65334 21.7186 1.60059 21.5998 1.60064H13.5999V0.400663C13.5999 0.179768 13.4209 0.000671387 13.2 0.000671387H10.8C10.5791 0.000671387 10.4 0.179768 10.4 0.400663V1.60064H8.40006C8.17916 1.60064 8.00006 1.77973 8.00006 2.00063V6.80053C8.00006 7.02143 8.17916 7.20052 8.40006 7.20052H10.4V8.0005H2.40018C2.28133 8.00045 2.16864 8.0532 2.09259 8.1445L0.09263 10.5445C-0.0309174 10.6927 -0.0309174 10.9081 0.09263 11.0564L2.09259 13.4564C2.16864 13.5477 2.28133 13.6004 2.40018 13.6004H10.4V23.6002C10.4 23.8211 10.5791 24.0002 10.8 24.0002H13.2C13.4209 24.0002 13.5999 23.8211 13.5999 23.6002V13.6004H15.5999C15.8208 13.6004 15.9999 13.4213 15.9999 13.2004V8.4005C15.9999 8.1796 15.8208 8.0005 15.5999 8.0005H13.5999V7.20052H21.5998C21.7186 7.20057 21.8313 7.14782 21.9074 7.05652L23.9073 4.65657C24.0309 4.50828 24.0309 4.29288 23.9073 4.14459ZM11.2 0.800655H12.8V1.60064H11.2V0.800655ZM12.8 23.2002H11.2V13.6004H12.8V23.2002ZM15.1999 8.80049V12.8004H2.58778L0.920213 10.8004L2.58778 8.80049H15.1999ZM11.2 8.0005V7.20052H12.8V8.0005H11.2ZM21.413 6.40054H8.80005V2.40062H21.4122L23.0798 4.40058L21.413 6.40054Z" fill="white"/>
</svg>
