<svg width="28" height="28" viewBox="0 0 28 28" fill="none" xmlns="http://www.w3.org/2000/svg">
<g clip-path="url(#clip0)">
<path d="M12.833 26.8151C5.75739 26.8151 0 21.0579 0 13.9823C0 6.90665 5.75739 1.14926 12.833 1.14926C15.2934 1.14926 17.6872 1.85035 19.7557 3.17798C20.1618 3.43944 20.2807 3.98075 20.0193 4.3879C19.757 4.79505 19.2167 4.91276 18.8096 4.6515C17.0246 3.5046 14.9574 2.89921 12.833 2.89921C6.72208 2.89921 1.74995 7.87134 1.74995 13.9823C1.74995 20.093 6.72208 25.0651 12.833 25.0651C18.9437 25.0651 23.9158 20.093 23.9158 13.9823C23.9158 13.617 23.8983 13.2553 23.8646 12.8997C23.818 12.4177 24.1703 11.9907 24.6509 11.9442C25.1339 11.8997 25.5596 12.2498 25.6064 12.7305C25.6459 13.1423 25.6658 13.5599 25.6658 13.9823C25.6658 21.0579 19.9086 26.8151 12.833 26.8151Z" fill="#00654F"/>
<path d="M14.2909 16.8988C14.067 16.8988 13.8429 16.8135 13.6727 16.6422L8.42284 11.3924C8.08106 11.0504 8.08106 10.4963 8.42284 10.1545C8.76463 9.81269 9.31875 9.81269 9.66054 10.1545L14.2922 14.7861L26.5055 2.57259C26.8475 2.23081 27.4016 2.23081 27.7434 2.57259C28.0852 2.91438 28.0852 3.4685 27.7434 3.81029L14.9104 16.6433C14.7388 16.8135 14.515 16.8988 14.2909 16.8988Z" fill="#00654F"/>
</g>
<defs>
<clipPath id="clip0">
<rect width="28" height="28" fill="white"/>
</clipPath>
</defs>
</svg>
