<svg width="60" height="59" viewBox="0 0 60 59" fill="none" xmlns="http://www.w3.org/2000/svg">
<g clip-path="url(#clip0)">
<path d="M11.0767 58.54C12.0031 58.6418 24.217 58.54 24.217 58.54C24.217 58.54 34.478 58.9626 41.3175 52.5497C48.1571 46.1369 48.0282 36.2217 48.0282 36.2217V13.1292H43.3977L51.2199 0.762695L59.2479 13.1292H54.3067V36.4618C54.3067 36.4618 54.224 43.114 53.1703 45.9522C52.4489 47.7802 51.405 49.4681 50.0869 50.9382" stroke="#656565"/>
<path d="M33.2112 6.03442C32.2837 6.03442 31.3771 6.30527 30.606 6.81272C29.8349 7.32017 29.2338 8.04143 28.8789 8.88529C28.524 9.72915 28.4311 10.6577 28.6121 11.5535C28.793 12.4494 29.2396 13.2723 29.8954 13.9181C30.5512 14.564 31.3867 15.0038 32.2963 15.182C33.206 15.3602 34.1488 15.2688 35.0056 14.9192C35.8625 14.5697 36.5948 13.9778 37.1101 13.2183C37.6253 12.4588 37.9004 11.566 37.9004 10.6526C37.8991 9.42817 37.4046 8.25427 36.5255 7.38848C35.6464 6.52269 34.4544 6.03572 33.2112 6.03442V6.03442ZM33.2112 14.2436C32.4898 14.2436 31.7847 14.0329 31.185 13.6383C30.5852 13.2436 30.1178 12.6826 29.8417 12.0263C29.5657 11.37 29.4935 10.6478 29.6342 9.95104C29.7749 9.2543 30.1223 8.6143 30.6323 8.11198C31.1424 7.60965 31.7922 7.26757 32.4997 7.12897C33.2071 6.99038 33.9404 7.06151 34.6068 7.33337C35.2732 7.60523 35.8428 8.0656 36.2436 8.65627C36.6443 9.24694 36.8582 9.94138 36.8582 10.6518C36.8571 11.6041 36.4725 12.517 35.7888 13.1904C35.1051 13.8637 34.1781 14.2425 33.2112 14.2436Z" fill="#00654F"/>
<path d="M39.0975 18.7448C37.8653 16.9746 36.2332 16 34.5001 16H32.5007C30.7676 16 29.1347 16.9746 27.9034 18.7448C26.6132 20.7233 25.9548 22.9911 26.0024 25.2925C26.0024 25.683 26.2259 26 26.5025 26H40.4975C40.7732 26 40.9976 25.683 40.9976 25.2925C41.0455 22.9911 40.3874 20.7233 39.0975 18.7448ZM27.024 24.5843C27.274 20.5713 29.6347 17.415 32.5041 17.415H34.5035C37.3687 17.415 39.7268 20.5713 39.9837 24.5843H27.024Z" fill="#00654F"/>
<path d="M21.6892 24.7545C20.7618 24.7545 19.8552 25.0254 19.084 25.5328C18.3129 26.0403 17.7119 26.7615 17.3569 27.6054C17.002 28.4492 16.9092 29.3778 17.0901 30.2736C17.271 31.1695 17.7176 31.9924 18.3734 32.6382C19.0292 33.2841 19.8648 33.7239 20.7744 33.9021C21.684 34.0803 22.6268 33.9888 23.4837 33.6393C24.3405 33.2898 25.0729 32.6978 25.5881 31.9384C26.1034 31.1789 26.3784 30.2861 26.3784 29.3727C26.3771 28.1483 25.8826 26.9744 25.0035 26.1086C24.1244 25.2428 22.9324 24.7558 21.6892 24.7545V24.7545ZM21.6892 32.9637C20.9679 32.9637 20.2628 32.753 19.663 32.3583C19.0632 31.9637 18.5958 31.4027 18.3197 30.7464C18.0437 30.0901 17.9715 29.3679 18.1122 28.6711C18.2529 27.9744 18.6003 27.3344 19.1103 26.8321C19.6204 26.3297 20.2702 25.9877 20.9777 25.8491C21.6851 25.7105 22.4184 25.7816 23.0849 26.0535C23.7513 26.3253 24.3209 26.7857 24.7216 27.3764C25.1224 27.967 25.3363 28.6615 25.3363 29.3719C25.3352 30.3241 24.9506 31.2371 24.2668 31.9105C23.5831 32.5838 22.6561 32.9626 21.6892 32.9637Z" fill="#00654F"/>
<path d="M27.0975 37.7448C25.8653 35.9746 24.2332 35 22.5001 35H20.5007C18.7676 35 17.1347 35.9746 15.9034 37.7448C14.6132 39.7233 13.9548 41.9911 14.0024 44.2925C14.0024 44.683 14.2259 45 14.5025 45H28.4975C28.7732 45 28.9976 44.683 28.9976 44.2925C29.0455 41.9911 28.3874 39.7233 27.0975 37.7448ZM15.024 43.5843C15.274 39.5713 17.6347 36.415 20.5041 36.415H22.5035C25.3687 36.415 27.7268 39.5713 27.9837 43.5843H15.024Z" fill="#00654F"/>
<path d="M6.6892 36.9633C5.76176 36.9633 4.85515 37.2341 4.08402 37.7416C3.31289 38.249 2.71186 38.9703 2.35695 39.8141C2.00203 40.658 1.90917 41.5865 2.0901 42.4824C2.27104 43.3782 2.71764 44.2011 3.37343 44.847C4.02923 45.4928 4.86476 45.9327 5.77438 46.1109C6.68399 46.289 7.62684 46.1976 8.48368 45.8481C9.34051 45.4985 10.0729 44.9066 10.5881 44.1471C11.1034 43.3877 11.3784 42.4948 11.3784 41.5814C11.3771 40.357 10.8826 39.1831 10.0035 38.3173C9.1244 37.4515 7.93244 36.9645 6.6892 36.9633V36.9633ZM6.6892 45.1724C5.96788 45.1724 5.26275 44.9618 4.663 44.5671C4.06324 44.1724 3.59579 43.6115 3.31975 42.9551C3.04371 42.2988 2.97149 41.5766 3.11221 40.8799C3.25294 40.1831 3.60028 39.5431 4.11033 39.0408C4.62038 38.5385 5.27023 38.1964 5.97769 38.0578C6.68515 37.9192 7.41845 37.9903 8.08486 38.2622C8.75127 38.5341 9.32087 38.9944 9.72161 39.5851C10.1224 40.1758 10.3363 40.8702 10.3363 41.5806C10.3352 42.5329 9.95056 43.4459 9.26684 44.1192C8.58312 44.7926 7.65612 45.1713 6.6892 45.1724Z" fill="#00654F"/>
<path d="M12.2243 49.4703C11.0743 47.8771 9.55101 47 7.93344 47H6.06733C4.44976 47 2.9257 47.8771 1.77646 49.4703C0.572284 51.2509 -0.0422196 53.292 0.00225374 55.3633C0.00225374 55.7147 0.210843 56 0.468982 56H13.531C13.7883 56 13.9977 55.7147 13.9977 55.3633C14.0424 53.292 13.4282 51.251 12.2243 49.4703ZM0.955692 54.7258C1.18906 51.1142 3.39243 48.2735 6.07052 48.2735H7.93664C10.6107 48.2735 12.8117 51.1142 13.0515 54.7258H0.955692Z" fill="#00654F"/>
</g>
<defs>
<clipPath id="clip0">
<rect width="60" height="59" fill="white"/>
</clipPath>
</defs>
</svg>
