<svg width="70" height="66" viewBox="0 0 70 66" fill="none" xmlns="http://www.w3.org/2000/svg">
<g clip-path="url(#clip0)">
<path d="M33.7788 0.00134277C32.7452 0.00134277 31.7348 0.304324 30.8754 0.871972C30.0159 1.43962 29.3461 2.24644 28.9505 3.19041C28.555 4.13437 28.4515 5.17308 28.6532 6.17519C28.8548 7.1773 29.3525 8.09779 30.0834 8.82027C30.8143 9.54275 31.7455 10.0348 32.7592 10.2341C33.773 10.4334 34.8238 10.3311 35.7787 9.94012C36.7337 9.54912 37.5498 8.88698 38.1241 8.03743C38.6983 7.18789 39.0049 6.18909 39.0049 5.16735C39.0034 3.79769 38.4523 2.48453 37.4726 1.51603C36.4928 0.547528 35.1644 0.00278884 33.7788 0.00134277V0.00134277ZM33.7788 9.18435C32.9749 9.18435 32.189 8.9487 31.5206 8.50721C30.8522 8.06572 30.3312 7.4382 30.0236 6.70403C29.7159 5.96985 29.6355 5.16198 29.7923 4.38259C29.9491 3.60319 30.3362 2.88727 30.9047 2.32535C31.4731 1.76344 32.1974 1.38077 32.9858 1.22574C33.7743 1.07071 34.5915 1.15027 35.3342 1.45438C36.077 1.75849 36.7118 2.27347 37.1584 2.93421C37.605 3.59495 37.8434 4.37178 37.8434 5.16644C37.8422 6.23169 37.4136 7.25296 36.6516 8.0062C35.8896 8.75944 34.8564 9.18314 33.7788 9.18435Z" fill="#00654F"/>
<path d="M39.9706 13.7448C38.6563 11.9746 36.9154 11 35.0668 11H32.9341C31.0854 11 29.3437 11.9746 28.0302 13.7448C26.654 15.7233 25.9517 17.9911 26.0026 20.2925C26.0026 20.683 26.241 21 26.536 21H41.464C41.7581 21 41.9974 20.683 41.9974 20.2925C42.0485 17.9911 41.3465 15.7233 39.9706 13.7448ZM27.0922 19.5843C27.3589 15.5713 29.8771 12.415 32.9377 12.415H35.0704C38.1266 12.415 40.642 15.5713 40.916 19.5843H27.0922Z" fill="#00654F"/>
<path d="M7.98924 14.5688C6.95563 14.5688 5.94522 14.8718 5.0858 15.4395C4.22638 16.0071 3.55654 16.8139 3.161 17.7579C2.76545 18.7019 2.66195 19.7406 2.8636 20.7427C3.06525 21.7448 3.56298 22.6653 4.29386 23.3878C5.02474 24.1103 5.95593 24.6023 6.96968 24.8016C7.98344 25.0009 9.03423 24.8986 9.98917 24.5076C10.9441 24.1166 11.7603 23.4545 12.3345 22.6049C12.9088 21.7554 13.2153 20.7566 13.2153 19.7349C13.2138 18.3652 12.6628 17.052 11.683 16.0835C10.7032 15.115 9.37483 14.5703 7.98924 14.5688V14.5688ZM7.98924 23.7519C7.18534 23.7519 6.39948 23.5162 5.73106 23.0747C5.06264 22.6332 4.54167 22.0057 4.23403 21.2715C3.92639 20.5374 3.8459 19.7295 4.00273 18.9501C4.15957 18.1707 4.54668 17.4548 5.11513 16.8929C5.68357 16.3309 6.40782 15.9483 7.19627 15.7932C7.98473 15.6382 8.80198 15.7178 9.54469 16.0219C10.2874 16.326 10.9222 16.841 11.3688 17.5017C11.8155 18.1625 12.0539 18.9393 12.0539 19.7339C12.0526 20.7992 11.624 21.8205 10.862 22.5737C10.1 23.3269 9.06687 23.7506 7.98924 23.7519Z" fill="#00654F"/>
<path d="M13.9706 28.7448C12.6563 26.9746 10.9154 26 9.06679 26H6.93409C5.08544 26 3.34366 26.9746 2.03024 28.7448C0.654039 30.7233 -0.0482509 32.9911 0.00257571 35.2925C0.00257571 35.683 0.240963 36 0.53598 36H15.464C15.7581 36 15.9974 35.683 15.9974 35.2925C16.0485 32.9911 15.3465 30.7233 13.9706 28.7448ZM1.09222 34.5843C1.35892 30.5713 3.87706 27.415 6.93774 27.415H9.07045C12.1266 27.415 14.642 30.5713 14.916 34.5843H1.09222Z" fill="#00654F"/>
<path d="M18.2261 42.7935C17.1924 42.7935 16.182 43.0964 15.3226 43.6641C14.4632 44.2317 13.7934 45.0386 13.3978 45.9825C13.0023 46.9265 12.8988 47.9652 13.1004 48.9673C13.3021 49.9694 13.7998 50.8899 14.5307 51.6124C15.2616 52.3349 16.1927 52.8269 17.2065 53.0262C18.2203 53.2255 19.271 53.1232 20.226 52.7322C21.1809 52.3412 21.9971 51.6791 22.5714 50.8295C23.1456 49.98 23.4521 48.9812 23.4521 47.9595C23.4507 46.5898 22.8996 45.2766 21.9198 44.3081C20.9401 43.3396 19.6116 42.7949 18.2261 42.7935V42.7935ZM18.2261 51.9765C17.4222 51.9765 16.6363 51.7408 15.9679 51.2993C15.2995 50.8578 14.7785 50.2303 14.4708 49.4961C14.1632 48.762 14.0827 47.9541 14.2396 47.1747C14.3964 46.3953 14.7835 45.6794 15.3519 45.1175C15.9204 44.5556 16.6446 44.1729 17.4331 44.0179C18.2215 43.8628 19.0388 43.9424 19.7815 44.2465C20.5242 44.5506 21.159 45.0656 21.6057 45.7263C22.0523 46.3871 22.2907 47.1639 22.2907 47.9586C22.2894 49.0238 21.8608 50.0451 21.0988 50.7983C20.3368 51.5516 19.3037 51.9753 18.2261 51.9765Z" fill="#00654F"/>
<path d="M23.9706 56.7448C22.6563 54.9746 20.9154 54 19.0668 54H16.9341C15.0854 54 13.3437 54.9746 12.0302 56.7448C10.654 58.7233 9.95175 60.9911 10.0026 63.2925C10.0026 63.683 10.241 64 10.536 64H25.464C25.7581 64 25.9974 63.683 25.9974 63.2925C26.0485 60.9911 25.3465 58.7233 23.9706 56.7448ZM11.0922 62.5843C11.3589 58.5713 13.8771 55.415 16.9377 55.415H19.0704C22.1266 55.415 24.642 58.5713 24.916 62.5843H11.0922Z" fill="#00654F"/>
<path d="M48.4998 62C58.1647 62 65.9998 54.165 65.9998 44.5C65.9998 34.835 58.1647 27 48.4998 27C38.8348 27 30.9998 34.835 30.9998 44.5C30.9998 54.165 38.8348 62 48.4998 62Z" stroke="#656565"/>
<path d="M49.8513 42.8477H54.6091V44.8984H49.8513V50.2891H47.6716V44.8984H42.9138V42.8477H47.6716V37.8672H49.8513V42.8477Z" fill="#707070"/>
</g>
<defs>
<clipPath id="clip0">
<rect width="70" height="66" fill="white"/>
</clipPath>
</defs>
</svg>
