<svg id="svg" version="1.1" xmlns="http://www.w3.org/2000/svg" xmlns:xlink="http://www.w3.org/1999/xlink" width="400" height="400" viewBox="0, 0, 400,400"><g id="svgg"><path id="path0" d="M0.000 200.000 L 0.000 400.000 200.000 400.000 L 400.000 400.000 400.000 200.000 L 400.000 0.000 200.000 0.000 L 0.000 0.000 0.000 200.000 M328.033 1.171 C 329.225 1.375,331.460 1.756,333.000 2.018 C 335.994 2.528,340.477 3.649,343.800 4.720 C 366.773 12.124,387.076 32.427,394.480 55.400 C 395.551 58.723,396.672 63.206,397.182 66.200 C 397.444 67.740,397.825 69.975,398.029 71.167 C 398.569 74.323,398.523 324.399,397.982 328.123 C 393.171 361.197,371.596 386.376,340.200 395.557 C 337.614 396.313,333.579 397.137,328.354 397.975 C 324.942 398.523,74.356 398.575,71.167 398.029 C 69.975 397.825,67.740 397.444,66.200 397.182 C 63.206 396.672,58.723 395.551,55.400 394.480 C 32.400 387.067,12.133 366.800,4.720 343.800 C 3.649 340.477,2.528 335.994,2.018 333.000 C 1.756 331.460,1.375 329.225,1.171 328.033 C 0.501 324.123,0.690 74.459,1.366 69.965 C 6.290 37.225,29.165 11.380,60.400 3.268 C 63.146 2.555,64.874 2.210,70.600 1.231 C 73.369 0.758,325.277 0.699,328.033 1.171 M138.000 75.620 C 117.232 75.794,106.142 76.034,104.400 76.347 C 102.970 76.604,100.540 76.998,99.000 77.223 C 97.460 77.448,95.480 77.790,94.600 77.983 C 93.720 78.177,91.920 78.555,90.600 78.824 C 70.151 82.991,57.404 92.591,50.268 109.200 C 48.904 112.374,47.844 116.085,46.727 121.600 C 45.959 125.390,45.950 299.469,46.717 305.400 C 48.296 317.600,51.798 321.004,63.483 321.695 C 74.738 322.361,100.103 321.788,103.107 320.800 C 107.947 319.209,111.331 316.818,112.637 314.065 C 114.633 309.858,114.547 313.020,114.624 241.816 C 114.697 174.568,114.811 166.752,115.801 160.984 C 118.245 146.736,128.616 135.743,143.200 131.940 C 148.803 130.479,150.975 130.426,205.265 130.413 C 263.380 130.399,261.923 130.344,266.967 132.746 C 281.030 139.445,280.990 165.280,266.907 172.067 C 261.995 174.435,263.306 174.369,220.400 174.402 C 157.304 174.452,160.013 173.321,160.013 199.600 C 160.013 218.003,161.378 220.931,171.044 223.271 C 174.535 224.116,175.387 224.137,218.000 224.383 L 261.400 224.634 263.970 225.550 C 275.706 229.730,281.032 244.360,275.345 256.800 C 274.993 257.570,274.445 258.766,274.127 259.458 C 272.126 263.811,267.213 266.951,260.600 268.101 C 259.073 268.367,245.472 268.538,223.200 268.571 C 198.442 268.608,186.912 268.768,183.800 269.116 C 173.348 270.287,171.706 270.556,169.729 271.423 C 167.070 272.588,164.325 275.126,163.135 277.518 L 162.200 279.400 162.200 296.400 L 162.200 313.400 163.190 315.400 C 164.440 317.923,166.874 320.375,169.200 321.454 C 173.439 323.421,172.800 323.401,232.200 323.383 C 289.282 323.365,291.069 323.323,300.200 321.778 C 306.682 320.682,306.454 320.727,312.200 319.377 C 328.381 315.577,340.986 305.914,347.255 292.507 C 349.758 287.153,350.274 285.717,351.319 281.200 C 353.401 272.199,353.791 268.534,353.791 258.000 C 353.791 247.797,353.363 243.575,351.519 235.600 C 347.472 218.099,335.463 206.145,317.397 201.635 C 310.405 199.889,309.894 199.182,314.800 198.037 C 340.488 192.045,348.431 182.992,353.263 154.200 C 353.976 149.949,353.988 131.688,353.279 127.800 C 352.998 126.260,352.573 123.920,352.334 122.600 C 348.292 100.306,335.166 85.793,313.800 79.993 C 308.955 78.678,304.555 77.650,302.000 77.236 C 300.350 76.969,298.100 76.568,297.000 76.345 C 292.679 75.471,203.980 75.066,138.000 75.620 " stroke="none" fill="#fbfbfb" fill-rule="evenodd"></path><path id="path1" d="M72.200 1.636 C 34.953 5.534,5.140 35.754,1.598 73.200 C 0.982 79.722,1.306 323.766,1.938 328.000 C 3.072 335.614,4.680 342.178,6.420 346.300 C 6.629 346.795,6.959 347.605,7.153 348.100 C 11.921 360.264,21.554 372.874,32.613 381.427 C 34.723 383.059,39.092 386.000,39.406 386.000 C 39.543 386.000,40.408 386.502,41.328 387.116 C 42.248 387.729,43.855 388.629,44.900 389.116 C 47.655 390.398,50.452 391.643,51.600 392.097 C 52.150 392.315,52.913 392.652,53.295 392.847 C 53.677 393.041,54.341 393.200,54.771 393.200 C 55.201 393.200,55.664 393.380,55.800 393.600 C 55.936 393.820,56.577 394.000,57.224 394.000 C 57.871 394.000,58.400 394.180,58.400 394.400 C 58.400 394.620,58.929 394.800,59.576 394.800 C 60.223 394.800,60.864 394.980,61.000 395.200 C 61.136 395.420,61.946 395.600,62.800 395.600 C 63.654 395.600,64.464 395.780,64.600 396.000 C 64.736 396.220,65.791 396.400,66.944 396.400 C 68.097 396.400,69.211 396.569,69.420 396.777 C 70.124 397.474,94.800 398.291,94.800 397.617 C 94.800 397.388,94.620 397.200,94.400 397.200 C 94.180 397.200,94.000 397.020,94.000 396.800 C 94.000 396.580,94.360 396.400,94.800 396.400 C 95.333 396.400,95.600 396.133,95.600 395.600 C 95.600 395.067,95.867 394.800,96.400 394.800 C 96.933 394.800,97.200 395.067,97.200 395.600 C 97.200 396.133,97.467 396.400,98.000 396.400 C 98.533 396.400,98.800 396.133,98.800 395.600 C 98.800 395.160,98.620 394.800,98.400 394.800 C 98.180 394.800,98.000 394.342,98.000 393.782 C 98.000 392.762,99.579 390.800,100.400 390.800 C 101.056 390.800,102.800 388.924,102.800 388.218 C 102.800 387.798,103.184 387.600,104.000 387.600 C 104.933 387.600,105.200 387.422,105.200 386.800 C 105.200 386.267,105.467 386.000,106.000 386.000 C 106.533 386.000,106.800 385.733,106.800 385.200 C 106.800 384.667,107.067 384.400,107.600 384.400 C 108.040 384.400,108.400 384.220,108.400 384.000 C 108.400 383.780,108.760 383.600,109.200 383.600 C 109.822 383.600,110.000 383.333,110.000 382.400 C 110.000 381.740,109.820 381.200,109.600 381.200 C 109.380 381.200,109.200 380.840,109.200 380.400 C 109.200 379.733,109.467 379.600,110.800 379.600 C 111.680 379.600,112.400 379.420,112.400 379.200 C 112.400 378.980,112.940 378.800,113.600 378.800 C 114.757 378.800,114.800 378.735,114.800 376.982 C 114.800 374.857,116.107 373.200,117.782 373.200 C 118.533 373.200,118.800 372.990,118.800 372.400 C 118.800 371.778,119.067 371.600,120.000 371.600 C 121.067 371.600,121.200 371.467,121.200 370.400 C 121.200 369.740,121.020 369.200,120.800 369.200 C 120.580 369.200,120.400 369.020,120.400 368.800 C 120.400 368.580,120.760 368.400,121.200 368.400 C 121.640 368.400,122.000 368.220,122.000 368.000 C 122.000 367.780,122.463 367.600,123.029 367.600 C 123.594 367.600,124.314 367.343,124.629 367.029 C 125.278 366.379,125.407 364.400,124.800 364.400 C 124.580 364.400,124.400 364.040,124.400 363.600 C 124.400 363.160,124.580 362.800,124.800 362.800 C 125.020 362.800,125.200 362.980,125.200 363.200 C 125.200 363.420,125.560 363.600,126.000 363.600 C 126.440 363.600,126.800 363.420,126.800 363.200 C 126.800 362.980,127.120 362.800,127.512 362.800 C 127.903 362.800,128.483 362.440,128.800 362.000 C 129.117 361.560,129.697 361.200,130.088 361.200 C 130.480 361.200,130.800 360.917,130.800 360.571 C 130.800 359.763,131.763 358.800,132.571 358.800 C 132.933 358.800,133.200 358.461,133.200 358.000 C 133.200 357.560,133.380 357.200,133.600 357.200 C 133.820 357.200,134.000 356.840,134.000 356.400 C 134.000 355.867,133.733 355.600,133.200 355.600 C 132.760 355.600,132.400 355.420,132.400 355.200 C 132.400 354.980,132.760 354.800,133.200 354.800 C 133.640 354.800,134.000 354.980,134.000 355.200 C 134.000 355.420,134.360 355.600,134.800 355.600 C 135.255 355.600,135.600 355.333,135.600 354.982 C 135.600 354.182,137.382 352.400,138.182 352.400 C 138.522 352.400,138.800 352.220,138.800 352.000 C 138.800 351.780,139.160 351.600,139.600 351.600 C 140.133 351.600,140.400 351.333,140.400 350.800 C 140.400 350.360,140.580 350.000,140.800 350.000 C 141.020 350.000,141.200 349.280,141.200 348.400 C 141.200 347.520,141.380 346.800,141.600 346.800 C 141.820 346.800,142.000 346.980,142.000 347.200 C 142.000 347.420,142.360 347.600,142.800 347.600 C 143.422 347.600,143.600 347.333,143.600 346.400 C 143.600 345.740,143.420 345.200,143.200 345.200 C 142.980 345.200,142.800 344.840,142.800 344.400 C 142.800 343.805,143.067 343.600,143.840 343.600 C 144.479 343.600,145.311 343.138,146.000 342.400 C 146.617 341.740,147.409 341.200,147.760 341.200 C 148.514 341.200,148.636 339.745,147.904 339.501 C 147.543 339.381,147.589 339.154,148.075 338.668 C 148.947 337.796,149.200 337.825,149.200 338.800 C 149.200 339.333,149.467 339.600,150.000 339.600 C 150.440 339.600,150.800 339.420,150.800 339.200 C 150.800 338.980,151.160 338.800,151.600 338.800 C 152.133 338.800,152.400 338.533,152.400 338.000 C 152.400 337.467,152.133 337.200,151.600 337.200 C 151.160 337.200,150.800 337.020,150.800 336.800 C 150.800 336.580,150.980 336.400,151.200 336.400 C 151.420 336.400,151.600 335.860,151.600 335.200 C 151.600 334.540,151.780 334.000,152.000 334.000 C 152.220 334.000,152.400 334.180,152.400 334.400 C 152.400 334.620,152.940 334.800,153.600 334.800 C 154.533 334.800,154.800 334.622,154.800 334.000 C 154.800 333.560,154.980 333.200,155.200 333.200 C 155.420 333.200,155.600 332.840,155.600 332.400 C 155.600 331.960,155.420 331.600,155.200 331.600 C 154.980 331.600,154.800 331.420,154.800 331.200 C 154.800 330.980,155.325 330.800,155.967 330.800 C 156.608 330.800,157.238 330.575,157.367 330.300 C 157.553 329.900,157.647 329.900,157.833 330.300 C 158.145 330.968,159.124 330.933,159.829 330.229 C 160.661 329.396,160.536 328.400,159.600 328.400 C 158.653 328.400,158.596 328.147,159.371 327.371 C 160.147 326.596,160.400 326.653,160.400 327.600 C 160.400 328.133,160.667 328.400,161.200 328.400 C 161.644 328.400,162.000 328.133,162.000 327.800 C 162.000 326.797,162.808 327.122,164.236 328.700 C 165.368 329.950,165.661 330.100,165.997 329.600 C 166.280 329.179,166.490 329.134,166.700 329.448 C 166.865 329.695,167.630 330.000,168.400 330.126 C 169.170 330.252,170.700 330.555,171.800 330.799 C 173.549 331.187,177.625 331.561,181.400 331.678 C 182.474 331.712,188.883 331.516,203.400 331.007 C 211.976 330.707,226.903 330.396,252.800 329.980 C 291.788 329.353,296.948 328.948,312.200 325.323 C 315.500 324.539,318.380 323.763,318.600 323.601 C 318.820 323.438,319.716 323.073,320.592 322.791 C 332.099 319.079,344.071 308.579,349.313 297.600 C 357.172 281.141,358.972 256.338,353.748 236.484 C 352.633 232.247,350.885 228.059,350.833 229.500 C 350.815 229.995,350.980 230.400,351.200 230.400 C 351.420 230.400,351.600 231.030,351.600 231.800 C 351.600 232.570,351.780 233.200,352.000 233.200 C 352.220 233.200,352.400 233.884,352.400 234.720 C 352.400 235.556,352.563 236.411,352.763 236.620 C 352.963 236.829,353.228 237.900,353.352 239.000 C 353.476 240.100,353.774 242.350,354.014 244.000 C 355.148 251.793,354.930 266.179,353.557 274.200 C 348.223 305.357,330.632 319.505,292.391 323.395 C 283.837 324.265,179.029 324.286,174.100 323.418 C 167.442 322.246,163.892 319.576,161.958 314.285 C 161.047 311.792,160.780 281.081,161.651 278.919 C 162.876 275.875,163.899 274.206,165.245 273.055 C 166.999 271.553,169.802 270.000,170.758 270.000 C 171.133 270.000,171.611 269.840,171.820 269.643 C 172.200 269.287,173.732 269.084,181.600 268.350 C 183.910 268.135,191.915 267.869,199.389 267.759 C 209.302 267.614,213.070 267.430,213.319 267.080 C 213.583 266.709,213.707 266.714,213.864 267.100 C 214.002 267.440,215.050 267.598,217.133 267.594 C 219.261 267.590,220.016 267.469,219.600 267.200 C 219.270 266.987,218.415 266.809,217.700 266.806 C 216.669 266.801,216.400 266.635,216.400 266.000 C 216.400 265.560,216.580 265.200,216.800 265.200 C 217.020 265.200,217.200 265.380,217.200 265.600 C 217.200 265.820,217.560 266.000,218.000 266.000 C 218.693 266.000,218.800 265.733,218.800 264.000 C 218.800 262.296,218.913 262.000,219.567 262.000 C 219.988 262.000,220.438 261.775,220.567 261.500 C 220.753 261.100,220.847 261.100,221.033 261.500 C 221.530 262.563,222.800 262.060,222.800 260.800 C 222.800 260.140,222.620 259.600,222.400 259.600 C 222.180 259.600,222.000 259.420,222.000 259.200 C 222.000 258.980,222.360 258.800,222.800 258.800 C 223.240 258.800,223.600 258.980,223.600 259.200 C 223.600 259.420,224.320 259.600,225.200 259.600 C 226.533 259.600,226.800 259.467,226.800 258.800 C 226.800 258.267,226.533 258.000,226.000 258.000 C 225.560 258.000,225.200 257.897,225.200 257.771 C 225.200 257.314,226.358 256.400,226.938 256.400 C 227.265 256.400,227.638 256.175,227.767 255.900 C 227.953 255.500,228.047 255.500,228.233 255.900 C 228.623 256.734,230.000 256.500,230.000 255.600 C 230.000 255.051,229.733 254.800,229.151 254.800 C 228.423 254.800,228.377 254.710,228.825 254.170 C 229.258 253.648,229.252 253.479,228.786 253.191 C 228.476 253.000,228.378 252.699,228.566 252.522 C 228.755 252.345,228.990 252.425,229.088 252.700 C 229.186 252.975,229.612 253.200,230.033 253.200 C 230.455 253.200,230.800 253.380,230.800 253.600 C 230.800 253.820,231.160 254.000,231.600 254.000 C 232.133 254.000,232.400 253.733,232.400 253.200 C 232.400 252.667,232.133 252.400,231.600 252.400 C 231.067 252.400,230.800 252.133,230.800 251.600 C 230.800 251.067,231.067 250.800,231.600 250.800 C 232.040 250.800,232.400 250.620,232.400 250.400 C 232.400 250.180,232.940 250.000,233.600 250.000 C 234.667 250.000,234.800 249.867,234.800 248.800 C 234.800 247.867,234.978 247.600,235.600 247.600 C 236.133 247.600,236.400 247.333,236.400 246.800 C 236.400 246.267,236.667 246.000,237.200 246.000 C 237.733 246.000,238.000 245.733,238.000 245.200 C 238.000 244.760,238.180 244.400,238.400 244.400 C 238.620 244.400,238.800 244.040,238.800 243.600 C 238.800 243.160,238.980 242.800,239.200 242.800 C 239.420 242.800,239.600 242.980,239.600 243.200 C 239.600 243.420,239.960 243.600,240.400 243.600 C 240.933 243.600,241.200 243.333,241.200 242.800 C 241.200 242.267,240.933 242.000,240.400 242.000 C 239.867 242.000,239.600 241.733,239.600 241.200 C 239.600 240.578,239.867 240.400,240.800 240.400 C 241.460 240.400,242.000 240.220,242.000 240.000 C 242.000 239.780,242.283 239.600,242.629 239.600 C 243.361 239.600,244.400 238.662,244.400 238.000 C 244.400 237.447,245.396 236.400,245.921 236.400 C 246.130 236.400,246.404 235.881,246.531 235.246 L 246.762 234.092 251.081 233.814 C 257.718 233.387,259.981 233.412,262.753 233.944 C 265.031 234.382,265.918 234.738,268.377 236.200 C 270.132 237.244,271.929 240.054,273.868 244.788 C 274.631 246.650,274.868 252.602,274.271 254.900 C 274.097 255.567,274.145 256.000,274.392 256.000 C 274.617 256.000,274.800 255.550,274.800 255.000 C 274.800 254.450,274.980 254.000,275.200 254.000 C 275.420 254.000,275.600 253.496,275.600 252.880 C 275.600 252.264,275.789 251.571,276.019 251.341 C 276.266 251.094,276.440 248.873,276.443 245.945 C 276.453 235.106,270.838 227.323,261.798 225.646 C 260.699 225.442,241.080 225.152,218.200 225.002 C 176.301 224.728,174.578 224.668,168.794 223.267 C 164.958 222.338,161.580 219.356,160.298 215.766 C 159.393 213.231,159.243 186.016,160.121 183.600 C 161.456 179.925,163.782 177.236,166.800 175.880 C 171.277 173.869,174.726 173.724,226.788 173.370 C 246.496 173.235,261.671 172.976,262.062 172.767 C 262.439 172.565,263.209 172.400,263.774 172.400 C 264.338 172.400,264.800 172.220,264.800 172.000 C 264.800 171.780,265.053 171.600,265.362 171.600 C 267.536 171.600,272.254 167.302,273.951 163.776 C 280.427 150.317,275.149 134.965,262.976 131.854 C 259.299 130.914,150.863 130.807,146.347 131.739 C 130.660 134.976,119.554 145.355,116.628 159.514 C 115.228 166.287,115.119 172.552,115.249 239.000 C 115.384 308.126,115.354 309.433,113.536 313.659 C 111.956 317.334,106.936 320.613,100.800 321.980 C 97.985 322.606,61.187 322.498,58.200 321.854 C 49.505 319.980,46.737 315.178,45.602 300.000 C 45.032 292.373,45.455 126.716,46.055 122.600 C 50.341 93.219,71.295 77.896,110.874 75.202 C 119.766 74.597,293.344 74.902,297.400 75.530 C 303.757 76.515,308.461 77.503,313.000 78.806 C 313.880 79.059,315.097 79.362,315.705 79.479 C 316.313 79.596,316.908 79.851,317.029 80.046 C 317.149 80.241,317.599 80.400,318.029 80.400 C 318.459 80.400,319.123 80.559,319.505 80.753 C 319.887 80.948,320.650 81.289,321.200 81.511 C 324.537 82.860,330.503 85.982,330.733 86.500 C 330.807 86.665,331.030 86.800,331.229 86.800 C 331.428 86.800,332.628 87.598,333.896 88.574 C 344.823 96.989,350.929 108.229,353.574 124.800 C 355.762 138.509,355.053 153.097,351.551 166.400 C 346.740 184.677,337.599 192.889,315.900 198.428 C 313.975 198.919,312.400 199.437,312.400 199.579 C 312.400 199.816,318.857 201.375,321.904 201.875 C 322.621 201.992,323.306 202.249,323.427 202.444 C 324.916 204.853,341.171 195.568,346.000 189.551 C 352.247 181.767,357.084 167.530,358.216 153.600 C 358.260 153.050,358.330 152.600,358.370 152.600 C 359.021 152.600,358.952 130.303,358.296 128.800 C 358.152 128.470,357.947 126.400,357.840 124.200 C 357.734 122.000,357.525 119.705,357.377 119.100 C 357.146 118.161,357.231 118.000,357.953 118.000 C 358.627 118.000,358.800 117.755,358.800 116.800 C 358.800 116.140,358.980 115.600,359.200 115.600 C 359.420 115.600,359.600 115.317,359.600 114.971 C 359.600 114.239,360.538 113.200,361.200 113.200 C 362.388 113.200,363.349 111.050,362.315 110.705 C 362.027 110.609,362.462 109.912,363.387 108.987 C 364.312 108.062,365.009 107.627,365.105 107.915 C 365.489 109.068,367.600 108.464,367.600 107.200 C 367.600 106.267,367.778 106.000,368.400 106.000 C 369.067 106.000,369.200 105.733,369.200 104.400 C 369.200 102.889,369.267 102.800,370.400 102.800 C 371.333 102.800,371.600 102.622,371.600 102.000 C 371.600 101.467,371.867 101.200,372.400 101.200 C 373.051 101.200,373.200 100.933,373.200 99.771 C 373.200 98.276,373.927 97.200,374.938 97.200 C 375.265 97.200,375.638 96.975,375.767 96.700 C 375.953 96.300,376.047 96.300,376.233 96.700 C 376.613 97.513,378.000 97.304,378.000 96.433 C 378.000 96.012,377.775 95.586,377.500 95.488 C 377.209 95.384,377.148 95.161,377.355 94.955 C 377.561 94.748,377.784 94.809,377.888 95.100 C 378.189 95.943,379.600 95.696,379.600 94.800 C 379.600 94.360,379.780 94.000,380.000 94.000 C 380.220 94.000,380.400 93.460,380.400 92.800 C 380.400 92.140,380.220 91.600,380.000 91.600 C 379.780 91.600,379.600 91.420,379.600 91.200 C 379.600 90.980,379.960 90.800,380.400 90.800 C 380.861 90.800,381.200 90.533,381.200 90.171 C 381.200 89.363,382.163 88.400,382.971 88.400 C 383.333 88.400,383.600 88.061,383.600 87.600 C 383.600 87.067,383.867 86.800,384.400 86.800 C 384.840 86.800,385.200 86.620,385.200 86.400 C 385.200 86.180,385.740 86.000,386.400 86.000 C 387.333 86.000,387.600 85.822,387.600 85.200 C 387.600 84.760,387.780 84.400,388.000 84.400 C 388.220 84.400,388.400 84.040,388.400 83.600 C 388.400 83.160,388.580 82.800,388.800 82.800 C 389.020 82.800,389.200 82.440,389.200 82.000 C 389.200 81.407,389.467 81.200,390.229 81.200 C 391.294 81.200,392.400 80.390,392.400 79.610 C 392.400 78.946,394.270 77.200,394.982 77.200 C 395.333 77.200,395.600 76.855,395.600 76.400 C 395.600 75.960,395.780 75.600,396.000 75.600 C 396.577 75.600,396.493 74.110,395.900 73.833 C 395.500 73.647,395.500 73.553,395.900 73.367 C 396.175 73.238,396.400 72.788,396.400 72.367 C 396.400 71.945,396.580 71.600,396.800 71.600 C 397.020 71.600,397.200 71.251,397.200 70.824 C 397.200 70.397,397.020 69.936,396.800 69.800 C 396.580 69.664,396.400 68.573,396.400 67.376 C 396.400 66.179,396.238 65.200,396.040 65.200 C 395.842 65.200,395.581 64.435,395.459 63.500 C 395.034 60.240,394.709 58.791,394.356 58.573 C 394.160 58.452,394.000 57.924,394.000 57.400 C 394.000 56.876,393.820 56.336,393.600 56.200 C 393.380 56.064,393.200 55.524,393.200 55.000 C 393.200 54.476,393.020 53.936,392.800 53.800 C 392.580 53.664,392.400 53.220,392.400 52.814 C 392.400 52.176,391.908 50.998,390.350 47.905 C 390.157 47.523,390.000 46.938,390.000 46.605 C 390.000 46.272,389.820 46.000,389.600 46.000 C 389.380 46.000,389.200 45.640,389.200 45.200 C 389.200 44.760,389.062 44.400,388.894 44.400 C 388.726 44.400,388.282 43.725,387.906 42.900 C 387.035 40.984,385.989 39.248,385.100 38.242 C 384.715 37.806,384.400 37.213,384.400 36.925 C 384.400 36.636,384.250 36.400,384.068 36.400 C 383.885 36.400,383.480 35.908,383.168 35.306 C 382.483 33.985,382.436 33.924,378.684 29.400 C 371.023 20.165,359.933 12.030,348.787 7.469 C 347.804 7.067,346.640 6.584,346.200 6.395 C 345.760 6.207,344.680 5.839,343.800 5.577 C 342.920 5.316,341.887 4.944,341.505 4.751 C 341.123 4.558,340.369 4.400,339.829 4.400 C 339.289 4.400,338.748 4.239,338.626 4.042 C 338.505 3.845,337.729 3.585,336.903 3.463 C 336.076 3.341,334.410 3.047,333.200 2.810 C 326.608 1.520,324.279 1.495,200.000 1.399 C 131.470 1.345,73.960 1.452,72.200 1.636 M366.800 104.629 C 366.800 104.754,366.521 105.136,366.181 105.476 C 365.400 106.257,364.931 105.866,365.660 105.042 C 366.206 104.424,366.800 104.209,366.800 104.629 M113.200 376.400 C 113.200 376.840,113.020 377.200,112.800 377.200 C 112.580 377.200,112.400 376.840,112.400 376.400 C 112.400 375.960,112.580 375.600,112.800 375.600 C 113.020 375.600,113.200 375.960,113.200 376.400 " stroke="none" fill="#04785a" fill-rule="evenodd"></path><path id="path2" d="M325.900 1.882 C 326.395 1.978,327.205 1.978,327.700 1.882 C 328.195 1.787,327.790 1.709,326.800 1.709 C 325.810 1.709,325.405 1.787,325.900 1.882 M361.600 14.124 C 361.600 14.217,362.365 14.798,363.300 15.415 C 364.235 16.032,364.789 16.280,364.531 15.968 C 364.034 15.367,361.600 13.836,361.600 14.124 M365.344 16.709 C 365.660 17.221,368.000 18.953,368.000 18.675 C 368.000 18.576,367.339 17.991,366.532 17.375 C 365.724 16.759,365.189 16.459,365.344 16.709 M371.498 21.935 C 373.205 23.439,375.760 26.004,377.175 27.635 C 380.607 31.591,381.628 32.594,379.990 30.400 C 378.385 28.251,369.324 19.200,368.778 19.200 C 368.567 19.200,369.792 20.431,371.498 21.935 M382.822 34.600 C 382.827 35.129,383.942 36.591,384.169 36.365 C 384.266 36.268,384.002 35.741,383.582 35.194 C 383.161 34.647,382.820 34.380,382.822 34.600 M384.422 37.000 C 384.427 37.529,385.542 38.991,385.769 38.765 C 385.866 38.668,385.602 38.141,385.182 37.594 C 384.761 37.047,384.420 36.780,384.422 37.000 M386.009 39.500 C 386.014 39.665,386.385 40.250,386.833 40.800 L 387.648 41.800 387.014 40.500 C 386.411 39.265,385.989 38.845,386.009 39.500 M387.766 42.500 C 387.895 42.775,388.111 43.315,388.246 43.700 C 388.382 44.085,388.657 44.400,388.857 44.400 C 389.057 44.400,388.941 43.860,388.600 43.200 C 388.011 42.062,387.273 41.442,387.766 42.500 M390.800 48.672 C 390.800 49.169,391.991 51.600,392.235 51.600 C 392.423 51.600,391.300 48.767,390.987 48.454 C 390.884 48.351,390.800 48.449,390.800 48.672 M392.428 52.676 C 392.413 53.158,392.580 53.664,392.800 53.800 C 393.273 54.092,393.273 53.701,392.800 52.600 C 392.469 51.829,392.455 51.831,392.428 52.676 M393.206 55.076 C 393.203 55.558,393.380 56.064,393.600 56.200 C 394.109 56.515,394.109 55.588,393.600 54.800 C 393.285 54.312,393.211 54.364,393.206 55.076 M394.028 57.476 C 394.013 57.958,394.180 58.464,394.400 58.600 C 394.873 58.892,394.873 58.501,394.400 57.400 C 394.069 56.629,394.055 56.631,394.028 57.476 M394.834 60.200 C 394.822 60.640,394.987 61.270,395.200 61.600 C 395.714 62.395,395.714 61.396,395.200 60.200 L 394.856 59.400 394.834 60.200 M395.628 63.900 C 395.613 64.615,395.780 65.200,396.000 65.200 C 396.475 65.200,396.475 64.505,396.000 63.400 C 395.712 62.730,395.652 62.811,395.628 63.900 M396.440 68.076 C 396.418 68.888,396.580 69.664,396.800 69.800 C 397.263 70.086,397.263 69.045,396.800 67.600 C 396.512 66.702,396.476 66.750,396.440 68.076 M396.400 72.367 C 396.400 72.788,396.175 73.238,395.900 73.367 C 395.500 73.553,395.500 73.647,395.900 73.833 C 396.493 74.110,396.577 75.600,396.000 75.600 C 395.780 75.600,395.600 75.960,395.600 76.400 C 395.600 76.855,395.333 77.200,394.982 77.200 C 394.270 77.200,392.400 78.946,392.400 79.610 C 392.400 80.390,391.294 81.200,390.229 81.200 C 389.467 81.200,389.200 81.407,389.200 82.000 C 389.200 82.440,389.020 82.800,388.800 82.800 C 388.580 82.800,388.400 83.160,388.400 83.600 C 388.400 84.040,388.220 84.400,388.000 84.400 C 387.780 84.400,387.600 84.760,387.600 85.200 C 387.600 85.822,387.333 86.000,386.400 86.000 C 385.740 86.000,385.200 86.180,385.200 86.400 C 385.200 86.620,384.840 86.800,384.400 86.800 C 383.867 86.800,383.600 87.067,383.600 87.600 C 383.600 88.061,383.333 88.400,382.971 88.400 C 382.163 88.400,381.200 89.363,381.200 90.171 C 381.200 90.533,380.861 90.800,380.400 90.800 C 379.960 90.800,379.600 90.980,379.600 91.200 C 379.600 91.420,379.780 91.600,380.000 91.600 C 380.220 91.600,380.400 92.140,380.400 92.800 C 380.400 93.460,380.220 94.000,380.000 94.000 C 379.780 94.000,379.600 94.360,379.600 94.800 C 379.600 95.696,378.189 95.943,377.888 95.100 C 377.784 94.809,377.561 94.748,377.355 94.955 C 377.148 95.161,377.209 95.384,377.500 95.488 C 377.775 95.586,378.000 96.012,378.000 96.433 C 378.000 97.304,376.613 97.513,376.233 96.700 C 376.047 96.300,375.953 96.300,375.767 96.700 C 375.638 96.975,375.265 97.200,374.938 97.200 C 373.927 97.200,373.200 98.276,373.200 99.771 C 373.200 100.933,373.051 101.200,372.400 101.200 C 371.867 101.200,371.600 101.467,371.600 102.000 C 371.600 102.622,371.333 102.800,370.400 102.800 C 369.267 102.800,369.200 102.889,369.200 104.400 C 369.200 105.733,369.067 106.000,368.400 106.000 C 367.778 106.000,367.600 106.267,367.600 107.200 C 367.600 108.464,365.489 109.068,365.105 107.915 C 365.009 107.627,364.312 108.062,363.387 108.987 C 362.462 109.912,362.027 110.609,362.315 110.705 C 363.349 111.050,362.388 113.200,361.200 113.200 C 360.538 113.200,359.600 114.239,359.600 114.971 C 359.600 115.317,359.420 115.600,359.200 115.600 C 358.980 115.600,358.800 116.140,358.800 116.800 C 358.800 117.755,358.627 118.000,357.953 118.000 C 357.231 118.000,357.146 118.161,357.377 119.100 C 357.525 119.705,357.734 122.000,357.840 124.200 C 357.947 126.400,358.152 128.470,358.296 128.800 C 358.952 130.303,359.021 152.600,358.370 152.600 C 358.330 152.600,358.260 153.050,358.216 153.600 C 357.279 165.129,352.867 179.781,348.324 186.451 C 343.466 193.581,333.729 200.402,325.000 202.790 C 324.340 202.970,324.115 203.137,324.501 203.159 C 330.121 203.488,345.323 216.672,347.722 223.300 C 347.861 223.685,348.171 224.000,348.411 224.000 C 348.651 224.000,348.746 224.164,348.622 224.364 C 348.278 224.921,348.828 226.030,349.304 225.736 C 349.536 225.592,349.606 225.666,349.461 225.902 C 349.026 226.604,349.628 227.785,350.088 227.134 C 350.352 226.760,350.406 226.900,350.270 227.600 C 350.163 228.150,350.226 228.960,350.410 229.400 L 350.744 230.200 350.805 229.400 C 350.903 228.114,352.657 232.336,353.748 236.484 C 358.972 256.338,357.172 281.141,349.313 297.600 C 344.071 308.579,332.099 319.079,320.592 322.791 C 319.716 323.073,318.820 323.438,318.600 323.601 C 318.380 323.763,315.500 324.539,312.200 325.323 C 296.948 328.948,291.788 329.353,252.800 329.980 C 226.903 330.396,211.976 330.707,203.400 331.007 C 188.883 331.516,182.474 331.712,181.400 331.678 C 177.625 331.561,173.549 331.187,171.800 330.799 C 170.700 330.555,169.170 330.252,168.400 330.126 C 167.630 330.000,166.865 329.695,166.700 329.448 C 166.490 329.134,166.280 329.179,165.997 329.600 C 165.661 330.100,165.368 329.950,164.236 328.700 C 162.808 327.122,162.000 326.797,162.000 327.800 C 162.000 328.133,161.644 328.400,161.200 328.400 C 160.667 328.400,160.400 328.133,160.400 327.600 C 160.400 326.653,160.147 326.596,159.371 327.371 C 158.596 328.147,158.653 328.400,159.600 328.400 C 160.536 328.400,160.661 329.396,159.829 330.229 C 159.124 330.933,158.145 330.968,157.833 330.300 C 157.647 329.900,157.553 329.900,157.367 330.300 C 157.238 330.575,156.608 330.800,155.967 330.800 C 155.325 330.800,154.800 330.980,154.800 331.200 C 154.800 331.420,154.980 331.600,155.200 331.600 C 155.420 331.600,155.600 331.960,155.600 332.400 C 155.600 332.840,155.420 333.200,155.200 333.200 C 154.980 333.200,154.800 333.560,154.800 334.000 C 154.800 334.622,154.533 334.800,153.600 334.800 C 152.940 334.800,152.400 334.620,152.400 334.400 C 152.400 334.180,152.220 334.000,152.000 334.000 C 151.780 334.000,151.600 334.540,151.600 335.200 C 151.600 335.860,151.420 336.400,151.200 336.400 C 150.980 336.400,150.800 336.580,150.800 336.800 C 150.800 337.020,151.160 337.200,151.600 337.200 C 152.133 337.200,152.400 337.467,152.400 338.000 C 152.400 338.533,152.133 338.800,151.600 338.800 C 151.160 338.800,150.800 338.980,150.800 339.200 C 150.800 339.420,150.440 339.600,150.000 339.600 C 149.467 339.600,149.200 339.333,149.200 338.800 C 149.200 337.825,148.947 337.796,148.075 338.668 C 147.589 339.154,147.543 339.381,147.904 339.501 C 148.636 339.745,148.514 341.200,147.760 341.200 C 147.409 341.200,146.617 341.740,146.000 342.400 C 145.311 343.138,144.479 343.600,143.840 343.600 C 143.067 343.600,142.800 343.805,142.800 344.400 C 142.800 344.840,142.980 345.200,143.200 345.200 C 143.420 345.200,143.600 345.740,143.600 346.400 C 143.600 347.333,143.422 347.600,142.800 347.600 C 142.360 347.600,142.000 347.420,142.000 347.200 C 142.000 346.980,141.820 346.800,141.600 346.800 C 141.380 346.800,141.200 347.520,141.200 348.400 C 141.200 349.280,141.020 350.000,140.800 350.000 C 140.580 350.000,140.400 350.360,140.400 350.800 C 140.400 351.333,140.133 351.600,139.600 351.600 C 139.160 351.600,138.800 351.780,138.800 352.000 C 138.800 352.220,138.522 352.400,138.182 352.400 C 137.842 352.400,137.122 352.842,136.582 353.382 C 136.042 353.922,135.600 354.642,135.600 354.982 C 135.600 355.333,135.255 355.600,134.800 355.600 C 134.360 355.600,134.000 355.420,134.000 355.200 C 134.000 354.980,133.640 354.800,133.200 354.800 C 132.760 354.800,132.400 354.980,132.400 355.200 C 132.400 355.420,132.760 355.600,133.200 355.600 C 133.733 355.600,134.000 355.867,134.000 356.400 C 134.000 356.840,133.820 357.200,133.600 357.200 C 133.380 357.200,133.200 357.560,133.200 358.000 C 133.200 358.461,132.933 358.800,132.571 358.800 C 131.763 358.800,130.800 359.763,130.800 360.571 C 130.800 360.917,130.480 361.200,130.088 361.200 C 129.697 361.200,129.117 361.560,128.800 362.000 C 128.483 362.440,127.903 362.800,127.512 362.800 C 127.120 362.800,126.800 362.980,126.800 363.200 C 126.800 363.420,126.440 363.600,126.000 363.600 C 125.560 363.600,125.200 363.420,125.200 363.200 C 125.200 362.980,125.020 362.800,124.800 362.800 C 124.580 362.800,124.400 363.160,124.400 363.600 C 124.400 364.040,124.580 364.400,124.800 364.400 C 125.407 364.400,125.278 366.379,124.629 367.029 C 124.314 367.343,123.594 367.600,123.029 367.600 C 122.463 367.600,122.000 367.780,122.000 368.000 C 122.000 368.220,121.640 368.400,121.200 368.400 C 120.760 368.400,120.400 368.580,120.400 368.800 C 120.400 369.020,120.580 369.200,120.800 369.200 C 121.020 369.200,121.200 369.740,121.200 370.400 C 121.200 371.467,121.067 371.600,120.000 371.600 C 119.067 371.600,118.800 371.778,118.800 372.400 C 118.800 372.990,118.533 373.200,117.782 373.200 C 116.107 373.200,114.800 374.857,114.800 376.982 C 114.800 378.735,114.757 378.800,113.600 378.800 C 112.940 378.800,112.400 378.980,112.400 379.200 C 112.400 379.420,111.680 379.600,110.800 379.600 C 109.467 379.600,109.200 379.733,109.200 380.400 C 109.200 380.840,109.380 381.200,109.600 381.200 C 109.820 381.200,110.000 381.740,110.000 382.400 C 110.000 383.333,109.822 383.600,109.200 383.600 C 108.760 383.600,108.400 383.780,108.400 384.000 C 108.400 384.220,108.040 384.400,107.600 384.400 C 107.067 384.400,106.800 384.667,106.800 385.200 C 106.800 385.733,106.533 386.000,106.000 386.000 C 105.467 386.000,105.200 386.267,105.200 386.800 C 105.200 387.422,104.933 387.600,104.000 387.600 C 103.184 387.600,102.800 387.798,102.800 388.218 C 102.800 388.924,101.056 390.800,100.400 390.800 C 99.579 390.800,98.000 392.762,98.000 393.782 C 98.000 394.342,98.180 394.800,98.400 394.800 C 98.620 394.800,98.800 395.160,98.800 395.600 C 98.800 396.133,98.533 396.400,98.000 396.400 C 97.467 396.400,97.200 396.133,97.200 395.600 C 97.200 395.067,96.933 394.800,96.400 394.800 C 95.867 394.800,95.600 395.067,95.600 395.600 C 95.600 396.133,95.333 396.400,94.800 396.400 C 93.853 396.400,93.796 396.653,94.571 397.429 C 95.280 398.137,308.400 398.308,308.400 397.600 C 308.400 397.380,307.860 397.200,307.200 397.200 C 306.540 397.200,306.000 397.020,306.000 396.800 C 306.000 396.580,306.180 396.400,306.400 396.400 C 306.620 396.400,306.800 396.040,306.800 395.600 C 306.800 394.933,307.067 394.800,308.400 394.800 C 309.280 394.800,310.000 394.620,310.000 394.400 C 310.000 394.180,310.540 394.000,311.200 394.000 C 312.133 394.000,312.400 393.822,312.400 393.200 C 312.400 392.533,312.133 392.400,310.800 392.400 C 309.920 392.400,309.200 392.220,309.200 392.000 C 309.200 391.780,310.100 391.600,311.200 391.600 C 312.933 391.600,313.200 391.493,313.200 390.800 C 313.200 390.360,313.020 390.000,312.800 390.000 C 312.580 390.000,312.400 389.460,312.400 388.800 C 312.400 387.733,312.533 387.600,313.600 387.600 C 314.260 387.600,314.800 387.780,314.800 388.000 C 314.800 388.220,315.160 388.400,315.600 388.400 C 316.222 388.400,316.400 388.133,316.400 387.200 C 316.400 386.540,316.580 386.000,316.800 386.000 C 317.020 386.000,317.200 385.460,317.200 384.800 C 317.200 384.140,317.380 383.600,317.600 383.600 C 317.820 383.600,318.000 383.780,318.000 384.000 C 318.000 384.220,318.720 384.400,319.600 384.400 C 320.480 384.400,321.200 384.580,321.200 384.800 C 321.200 385.020,321.560 385.200,322.000 385.200 C 322.533 385.200,322.800 384.933,322.800 384.400 C 322.800 383.867,322.533 383.600,322.000 383.600 C 321.560 383.600,321.200 383.420,321.200 383.200 C 321.200 382.980,321.560 382.800,322.000 382.800 C 322.693 382.800,322.800 382.533,322.800 380.800 C 322.800 379.067,322.907 378.800,323.600 378.800 C 324.267 378.800,324.400 378.533,324.400 377.200 C 324.400 376.320,324.580 375.600,324.800 375.600 C 325.020 375.600,325.200 375.960,325.200 376.400 C 325.200 377.067,325.467 377.200,326.800 377.200 C 327.988 377.200,328.400 377.038,328.400 376.571 C 328.400 375.695,329.681 374.443,329.901 375.104 C 329.992 375.377,330.412 375.600,330.833 375.600 C 331.704 375.600,331.913 374.213,331.100 373.833 C 330.700 373.647,330.700 373.553,331.100 373.367 C 331.693 373.090,331.777 371.600,331.200 371.600 C 330.980 371.600,330.800 371.060,330.800 370.400 C 330.800 369.740,330.980 369.200,331.200 369.200 C 331.420 369.200,331.600 369.560,331.600 370.000 C 331.600 370.533,331.867 370.800,332.400 370.800 C 333.022 370.800,333.200 370.533,333.200 369.600 C 333.200 368.940,333.380 368.400,333.600 368.400 C 333.820 368.400,334.000 368.580,334.000 368.800 C 334.000 369.020,334.360 369.200,334.800 369.200 C 335.240 369.200,335.600 369.020,335.600 368.800 C 335.600 368.580,335.960 368.400,336.400 368.400 C 337.022 368.400,337.200 368.133,337.200 367.200 C 337.200 366.267,337.378 366.000,338.000 366.000 C 338.533 366.000,338.800 365.733,338.800 365.200 C 338.800 364.760,338.620 364.400,338.400 364.400 C 338.180 364.400,338.000 364.220,338.000 364.000 C 338.000 363.780,338.540 363.600,339.200 363.600 C 340.133 363.600,340.400 363.422,340.400 362.800 C 340.400 362.267,340.133 362.000,339.600 362.000 C 338.664 362.000,338.539 361.004,339.371 360.171 C 340.147 359.396,340.400 359.453,340.400 360.400 C 340.400 360.933,340.667 361.200,341.200 361.200 C 341.640 361.200,342.000 361.380,342.000 361.600 C 342.000 361.820,341.820 362.000,341.600 362.000 C 341.380 362.000,341.200 362.180,341.200 362.400 C 341.200 362.620,341.560 362.800,342.000 362.800 C 342.667 362.800,342.800 362.533,342.800 361.200 C 342.800 359.689,342.867 359.600,344.000 359.600 C 344.933 359.600,345.200 359.422,345.200 358.800 C 345.200 358.133,344.933 358.000,343.600 358.000 C 342.720 358.000,342.000 357.820,342.000 357.600 C 342.000 357.380,342.360 357.200,342.800 357.200 C 343.393 357.200,343.600 356.933,343.600 356.171 C 343.600 355.606,343.857 354.886,344.171 354.571 C 344.827 353.916,346.000 353.806,346.000 354.400 C 346.000 354.620,345.640 354.800,345.200 354.800 C 344.667 354.800,344.400 355.067,344.400 355.600 C 344.400 356.267,344.667 356.400,346.000 356.400 C 346.880 356.400,347.600 356.220,347.600 356.000 C 347.600 355.780,347.960 355.600,348.400 355.600 C 348.933 355.600,349.200 355.333,349.200 354.800 C 349.200 354.178,348.933 354.000,348.000 354.000 C 347.067 354.000,346.800 353.822,346.800 353.200 C 346.800 352.302,348.196 352.061,348.536 352.900 C 348.689 353.278,348.852 353.253,349.200 352.800 C 349.548 352.347,349.711 352.322,349.864 352.700 C 350.152 353.410,350.800 353.321,350.800 352.571 C 350.800 351.763,351.763 350.800,352.571 350.800 C 352.933 350.800,353.200 350.461,353.200 350.000 C 353.200 349.378,353.467 349.200,354.400 349.200 C 355.333 349.200,355.600 349.022,355.600 348.400 C 355.600 347.867,355.333 347.600,354.800 347.600 C 354.267 347.600,354.000 347.333,354.000 346.800 C 354.000 346.360,354.180 346.000,354.400 346.000 C 354.620 346.000,354.800 345.280,354.800 344.400 C 354.800 343.520,354.620 342.800,354.400 342.800 C 354.180 342.800,354.000 342.620,354.000 342.400 C 354.000 342.180,354.283 342.000,354.629 342.000 C 355.437 342.000,356.400 341.037,356.400 340.229 C 356.400 339.449,356.690 339.433,357.429 340.171 C 358.084 340.827,358.194 342.000,357.600 342.000 C 357.380 342.000,357.200 342.360,357.200 342.800 C 357.200 343.333,357.467 343.600,358.000 343.600 C 358.440 343.600,358.800 343.780,358.800 344.000 C 358.800 344.220,359.160 344.400,359.600 344.400 C 360.133 344.400,360.400 344.133,360.400 343.600 C 360.400 343.160,360.580 342.800,360.800 342.800 C 361.020 342.800,361.200 341.797,361.200 340.571 C 361.200 337.746,362.025 336.646,363.162 337.956 C 364.132 339.074,366.000 339.103,366.000 338.000 C 366.000 337.467,365.733 337.200,365.200 337.200 C 364.578 337.200,364.400 336.933,364.400 336.000 C 364.400 334.867,364.489 334.800,366.000 334.800 C 367.267 334.800,367.600 334.652,367.600 334.088 C 367.600 333.697,367.960 333.117,368.400 332.800 C 369.008 332.362,369.200 331.765,369.200 330.312 C 369.200 328.667,369.312 328.400,370.000 328.400 C 370.440 328.400,370.800 328.220,370.800 328.000 C 370.800 327.780,371.160 327.600,371.600 327.600 C 372.040 327.600,372.400 327.420,372.400 327.200 C 372.400 326.980,372.760 326.800,373.200 326.800 C 373.640 326.800,374.000 326.980,374.000 327.200 C 374.000 327.420,374.360 327.600,374.800 327.600 C 375.333 327.600,375.600 327.333,375.600 326.800 C 375.600 326.339,375.333 326.000,374.971 326.000 C 374.626 326.000,374.086 325.743,373.771 325.429 C 373.116 324.773,373.006 323.600,373.600 323.600 C 373.820 323.600,374.000 323.780,374.000 324.000 C 374.000 324.220,374.360 324.400,374.800 324.400 C 375.333 324.400,375.600 324.133,375.600 323.600 C 375.600 323.160,375.780 322.800,376.000 322.800 C 376.581 322.800,376.492 320.509,375.900 320.233 C 375.500 320.047,375.500 319.953,375.900 319.767 C 376.175 319.638,376.400 319.188,376.400 318.767 C 376.400 318.345,376.580 318.000,376.800 318.000 C 377.020 318.000,377.200 318.525,377.200 319.167 C 377.200 319.808,377.425 320.438,377.700 320.567 C 378.100 320.753,378.100 320.847,377.700 321.033 C 376.866 321.423,377.100 322.800,378.000 322.800 C 378.533 322.800,378.800 322.533,378.800 322.000 C 378.800 321.560,378.980 321.200,379.200 321.200 C 379.420 321.200,379.600 320.840,379.600 320.400 C 379.600 319.960,379.420 319.600,379.200 319.600 C 378.980 319.600,378.800 319.420,378.800 319.200 C 378.800 318.980,379.160 318.800,379.600 318.800 C 380.040 318.800,380.400 318.980,380.400 319.200 C 380.400 319.420,380.760 319.600,381.200 319.600 C 381.733 319.600,382.000 319.333,382.000 318.800 C 382.000 318.339,381.733 318.000,381.371 318.000 C 380.427 318.000,379.600 316.986,379.600 315.829 C 379.600 314.952,379.778 314.800,380.800 314.800 C 381.733 314.800,382.000 314.978,382.000 315.600 C 382.000 316.133,382.267 316.400,382.800 316.400 C 383.333 316.400,383.600 316.133,383.600 315.600 C 383.600 315.160,383.780 314.800,384.000 314.800 C 384.220 314.800,384.400 314.980,384.400 315.200 C 384.400 315.420,384.760 315.600,385.200 315.600 C 385.733 315.600,386.000 315.333,386.000 314.800 C 386.000 314.360,385.820 314.000,385.600 314.000 C 385.380 314.000,385.200 313.640,385.200 313.200 C 385.200 312.760,385.380 312.400,385.600 312.400 C 385.820 312.400,386.000 312.580,386.000 312.800 C 386.000 313.020,386.360 313.200,386.800 313.200 C 387.333 313.200,387.600 312.933,387.600 312.400 C 387.600 311.867,387.333 311.600,386.800 311.600 C 386.360 311.600,386.000 311.420,386.000 311.200 C 386.000 310.980,386.540 310.800,387.200 310.800 C 388.267 310.800,388.400 310.667,388.400 309.600 C 388.400 308.940,388.580 308.400,388.800 308.400 C 389.020 308.400,389.200 308.117,389.200 307.771 C 389.200 307.426,389.457 306.886,389.771 306.571 C 390.418 305.925,393.200 305.786,393.200 306.400 C 393.200 306.620,393.560 306.800,394.000 306.800 C 394.533 306.800,394.800 306.533,394.800 306.000 C 394.800 305.467,394.533 305.200,394.000 305.200 C 393.560 305.200,393.200 305.020,393.200 304.800 C 393.200 304.580,393.920 304.400,394.800 304.400 C 396.252 304.400,396.400 304.305,396.400 303.371 C 396.400 302.059,395.541 301.200,394.229 301.200 C 393.663 301.200,393.200 301.020,393.200 300.800 C 393.200 300.580,393.920 300.400,394.800 300.400 C 396.133 300.400,396.400 300.533,396.400 301.200 C 396.400 301.735,396.667 302.000,397.205 302.000 L 398.011 302.000 397.898 187.700 C 397.835 124.835,397.632 72.995,397.446 72.500 C 397.031 71.400,396.400 71.319,396.400 72.367 M124.900 75.100 C 131.225 75.162,141.575 75.162,147.900 75.100 C 154.225 75.038,149.050 74.987,136.400 74.987 C 123.750 74.987,118.575 75.038,124.900 75.100 M286.915 75.096 C 288.188 75.176,290.168 75.175,291.315 75.094 C 292.462 75.014,291.420 74.949,289.000 74.950 C 286.580 74.951,285.642 75.016,286.915 75.096 M296.600 75.798 C 297.618 76.143,300.862 76.285,300.354 75.963 C 300.049 75.770,298.990 75.624,298.000 75.638 C 297.010 75.652,296.380 75.724,296.600 75.798 M302.033 76.543 C 302.125 76.622,302.920 76.797,303.800 76.932 C 304.890 77.099,305.209 77.055,304.800 76.795 C 304.253 76.446,301.645 76.209,302.033 76.543 M306.033 77.343 C 306.125 77.421,306.830 77.601,307.600 77.742 C 308.585 77.923,308.822 77.882,308.400 77.606 C 307.858 77.250,305.637 77.003,306.033 77.343 M309.633 78.144 C 309.725 78.223,310.340 78.408,311.000 78.556 C 311.876 78.752,312.038 78.715,311.600 78.418 C 311.060 78.053,309.232 77.798,309.633 78.144 M312.433 78.944 C 312.525 79.023,313.140 79.208,313.800 79.356 C 314.676 79.552,314.838 79.515,314.400 79.218 C 313.860 78.853,312.032 78.598,312.433 78.944 M327.600 84.820 C 328.987 85.761,329.778 86.035,328.800 85.236 C 328.250 84.786,327.620 84.417,327.400 84.415 C 327.180 84.413,327.270 84.596,327.600 84.820 M331.200 86.932 C 331.200 87.005,332.055 87.661,333.100 88.390 C 334.145 89.120,336.617 91.265,338.593 93.158 C 340.570 95.051,341.560 95.888,340.793 95.017 C 337.624 91.415,331.200 86.002,331.200 86.932 M342.975 98.132 C 343.591 98.939,344.176 99.600,344.275 99.600 C 344.553 99.600,342.821 97.260,342.309 96.944 C 342.059 96.789,342.359 97.324,342.975 98.132 M345.230 101.400 C 345.724 102.280,346.300 103.180,346.510 103.400 C 347.109 104.028,345.739 101.494,344.996 100.600 C 344.630 100.160,344.735 100.520,345.230 101.400 M365.660 105.042 C 364.931 105.866,365.400 106.257,366.181 105.476 C 366.521 105.136,366.800 104.754,366.800 104.629 C 366.800 104.209,366.206 104.424,365.660 105.042 M351.044 114.600 C 351.373 116.071,351.602 116.390,351.594 115.367 C 351.591 114.945,351.405 114.330,351.182 114.000 C 350.885 113.562,350.848 113.724,351.044 114.600 M353.701 127.000 C 353.705 127.880,353.787 128.193,353.883 127.695 C 353.979 127.198,353.975 126.478,353.875 126.095 C 353.775 125.713,353.696 126.120,353.701 127.000 M156.305 131.083 C 156.802 131.179,157.522 131.175,157.905 131.075 C 158.287 130.975,157.880 130.896,157.000 130.901 C 156.120 130.905,155.807 130.987,156.305 131.083 M176.713 131.095 C 177.876 131.176,179.676 131.176,180.713 131.093 C 181.751 131.011,180.800 130.945,178.600 130.946 C 176.400 130.947,175.551 131.014,176.713 131.095 M217.124 131.099 C 220.273 131.167,225.313 131.167,228.324 131.099 C 231.336 131.031,228.760 130.976,222.600 130.976 C 216.440 130.976,213.976 131.032,217.124 131.099 M354.569 140.600 C 354.570 145.220,354.628 147.055,354.699 144.678 C 354.770 142.301,354.769 138.521,354.698 136.278 C 354.627 134.035,354.569 135.980,354.569 140.600 M276.909 152.400 C 276.909 153.390,276.987 153.795,277.082 153.300 C 277.178 152.805,277.178 151.995,277.082 151.500 C 276.987 151.005,276.909 151.410,276.909 152.400 M276.493 156.000 C 276.493 156.770,276.575 157.085,276.676 156.700 C 276.776 156.315,276.776 155.685,276.676 155.300 C 276.575 154.915,276.493 155.230,276.493 156.000 M275.849 158.615 C 275.712 158.973,275.615 159.566,275.634 159.933 C 275.653 160.300,275.827 160.069,276.021 159.420 C 276.398 158.158,276.265 157.533,275.849 158.615 M270.000 168.882 C 268.790 170.011,268.160 170.738,268.600 170.499 C 269.369 170.080,272.753 166.784,272.381 166.815 C 272.282 166.824,271.210 167.754,270.000 168.882 M262.000 172.800 C 261.205 173.314,262.204 173.314,263.400 172.800 L 264.200 172.456 263.400 172.434 C 262.960 172.422,262.330 172.587,262.000 172.800 M205.400 173.605 C 183.798 173.792,184.949 173.814,219.000 173.861 C 239.460 173.890,257.280 173.774,258.600 173.604 C 261.178 173.272,243.705 173.272,205.400 173.605 M174.307 174.290 C 175.026 174.379,176.106 174.377,176.707 174.286 C 177.308 174.195,176.720 174.122,175.400 174.124 C 174.080 174.126,173.588 174.201,174.307 174.290 M159.701 185.800 C 159.705 186.680,159.787 186.993,159.883 186.495 C 159.979 185.998,159.975 185.278,159.875 184.895 C 159.775 184.513,159.696 184.920,159.701 185.800 M322.200 202.400 C 323.301 202.873,323.692 202.873,323.400 202.400 C 323.264 202.180,322.758 202.013,322.276 202.028 C 321.431 202.055,321.429 202.069,322.200 202.400 M159.701 213.000 C 159.705 213.880,159.787 214.193,159.883 213.695 C 159.979 213.198,159.975 212.478,159.875 212.095 C 159.775 211.713,159.696 212.120,159.701 213.000 M229.300 225.100 C 234.525 225.163,243.075 225.163,248.300 225.100 C 253.525 225.036,249.250 224.985,238.800 224.985 C 228.350 224.985,224.075 225.036,229.300 225.100 M350.828 230.700 C 350.938 231.873,351.546 232.526,351.572 231.500 C 351.587 230.895,351.420 230.400,351.200 230.400 C 350.980 230.400,350.813 230.535,350.828 230.700 M45.391 264.400 C 45.391 282.330,45.440 289.665,45.500 280.700 C 45.560 271.735,45.560 257.065,45.500 248.100 C 45.440 239.135,45.391 246.470,45.391 264.400 M254.800 233.584 C 254.250 233.769,252.221 233.938,250.290 233.960 L 246.780 234.000 246.540 235.200 C 246.408 235.860,246.130 236.400,245.921 236.400 C 245.396 236.400,244.400 237.447,244.400 238.000 C 244.400 238.662,243.361 239.600,242.629 239.600 C 242.283 239.600,242.000 239.780,242.000 240.000 C 242.000 240.220,241.460 240.400,240.800 240.400 C 239.867 240.400,239.600 240.578,239.600 241.200 C 239.600 241.733,239.867 242.000,240.400 242.000 C 240.933 242.000,241.200 242.267,241.200 242.800 C 241.200 243.333,240.933 243.600,240.400 243.600 C 239.960 243.600,239.600 243.420,239.600 243.200 C 239.600 242.980,239.420 242.800,239.200 242.800 C 238.980 242.800,238.800 243.160,238.800 243.600 C 238.800 244.040,238.620 244.400,238.400 244.400 C 238.180 244.400,238.000 244.760,238.000 245.200 C 238.000 245.733,237.733 246.000,237.200 246.000 C 236.667 246.000,236.400 246.267,236.400 246.800 C 236.400 247.333,236.133 247.600,235.600 247.600 C 234.978 247.600,234.800 247.867,234.800 248.800 C 234.800 249.867,234.667 250.000,233.600 250.000 C 232.940 250.000,232.400 250.180,232.400 250.400 C 232.400 250.620,232.040 250.800,231.600 250.800 C 231.067 250.800,230.800 251.067,230.800 251.600 C 230.800 252.133,231.067 252.400,231.600 252.400 C 232.133 252.400,232.400 252.667,232.400 253.200 C 232.400 253.733,232.133 254.000,231.600 254.000 C 231.160 254.000,230.800 253.820,230.800 253.600 C 230.800 253.380,230.455 253.200,230.033 253.200 C 229.612 253.200,229.186 252.975,229.088 252.700 C 228.990 252.425,228.755 252.345,228.566 252.522 C 228.378 252.699,228.476 253.000,228.786 253.191 C 229.252 253.479,229.258 253.648,228.825 254.170 C 228.377 254.710,228.423 254.800,229.151 254.800 C 229.733 254.800,230.000 255.051,230.000 255.600 C 230.000 256.500,228.623 256.734,228.233 255.900 C 228.047 255.500,227.953 255.500,227.767 255.900 C 227.638 256.175,227.265 256.400,226.938 256.400 C 226.358 256.400,225.200 257.314,225.200 257.771 C 225.200 257.897,225.560 258.000,226.000 258.000 C 226.533 258.000,226.800 258.267,226.800 258.800 C 226.800 259.467,226.533 259.600,225.200 259.600 C 224.320 259.600,223.600 259.420,223.600 259.200 C 223.600 258.980,223.240 258.800,222.800 258.800 C 222.360 258.800,222.000 258.980,222.000 259.200 C 222.000 259.420,222.180 259.600,222.400 259.600 C 222.620 259.600,222.800 260.140,222.800 260.800 C 222.800 262.060,221.530 262.563,221.033 261.500 C 220.847 261.100,220.753 261.100,220.567 261.500 C 220.438 261.775,219.988 262.000,219.567 262.000 C 218.913 262.000,218.800 262.296,218.800 264.000 C 218.800 265.733,218.693 266.000,218.000 266.000 C 217.560 266.000,217.200 265.820,217.200 265.600 C 217.200 265.380,217.020 265.200,216.800 265.200 C 216.580 265.200,216.400 265.560,216.400 266.000 C 216.400 266.626,216.667 266.800,217.626 266.800 C 218.301 266.800,219.198 266.985,219.621 267.211 C 220.911 267.902,258.390 267.763,261.600 267.056 C 268.170 265.609,274.794 260.535,273.731 257.764 C 273.561 257.322,273.619 257.165,273.890 257.332 C 274.124 257.477,274.431 257.296,274.572 256.930 C 274.712 256.564,274.663 256.160,274.463 256.032 C 274.244 255.893,274.249 254.760,274.474 253.200 C 274.680 251.770,274.737 249.548,274.600 248.263 C 274.142 243.954,270.923 237.714,268.377 236.200 C 265.914 234.735,265.031 234.383,262.753 233.960 C 259.358 233.328,256.030 233.171,254.800 233.584 M351.849 234.300 C 352.225 235.870,352.400 235.923,352.400 234.467 C 352.400 233.770,352.217 233.200,351.992 233.200 C 351.750 233.200,351.692 233.647,351.849 234.300 M352.628 237.861 C 352.997 239.903,353.200 240.055,353.200 238.290 C 353.200 237.497,353.009 236.729,352.774 236.584 C 352.485 236.405,352.438 236.812,352.628 237.861 M353.466 242.800 C 353.601 244.010,353.777 245.075,353.856 245.167 C 354.194 245.558,353.952 241.744,353.604 241.200 C 353.348 240.799,353.302 241.330,353.466 242.800 M276.520 243.200 C 276.520 244.410,276.595 244.905,276.687 244.300 C 276.778 243.695,276.778 242.705,276.687 242.100 C 276.595 241.495,276.520 241.990,276.520 243.200 M276.520 248.000 C 276.520 249.210,276.595 249.705,276.687 249.100 C 276.778 248.495,276.778 247.505,276.687 246.900 C 276.595 246.295,276.520 246.790,276.520 248.000 M354.311 255.274 C 354.372 260.183,354.477 264.830,354.544 265.600 C 354.611 266.370,354.678 262.770,354.693 257.600 C 354.708 252.430,354.603 247.783,354.460 247.274 C 354.317 246.764,354.250 250.364,354.311 255.274 M275.867 251.467 C 275.720 251.613,275.615 252.198,275.634 252.767 C 275.668 253.781,275.675 253.779,276.021 252.620 C 276.385 251.403,276.331 251.002,275.867 251.467 M274.806 254.900 C 274.811 255.628,274.886 255.685,275.200 255.200 C 275.701 254.424,275.701 254.000,275.200 254.000 C 274.980 254.000,274.803 254.405,274.806 254.900 M115.379 273.800 C 115.379 281.060,115.433 284.086,115.499 280.525 C 115.565 276.964,115.566 271.024,115.499 267.325 C 115.433 263.626,115.379 266.540,115.379 273.800 M186.000 268.001 C 185.450 268.177,187.520 268.224,190.600 268.105 C 193.680 267.986,196.275 267.824,196.367 267.744 C 196.706 267.450,186.964 267.691,186.000 268.001 M177.000 268.806 C 176.506 269.022,177.347 269.067,179.200 268.923 C 180.850 268.794,182.275 268.624,182.367 268.544 C 182.725 268.234,177.753 268.477,177.000 268.806 M171.815 269.576 C 171.676 269.801,172.191 269.859,173.091 269.720 C 175.100 269.410,175.261 269.200,173.490 269.200 C 172.697 269.200,171.943 269.369,171.815 269.576 M353.701 271.800 C 353.705 272.680,353.787 272.993,353.883 272.495 C 353.979 271.998,353.975 271.278,353.875 270.895 C 353.775 270.513,353.696 270.920,353.701 271.800 M166.351 272.177 C 164.599 273.463,162.800 275.530,162.800 276.257 C 162.800 276.440,163.295 275.893,163.900 275.040 C 164.505 274.188,165.898 272.885,166.995 272.145 C 168.092 271.405,168.812 270.804,168.595 270.810 C 168.378 270.815,167.368 271.431,166.351 272.177 M161.449 279.415 C 161.312 279.773,161.241 287.476,161.291 296.533 L 161.383 313.000 161.591 296.000 C 161.815 277.777,161.821 278.448,161.449 279.415 M115.351 293.200 C 115.351 295.730,115.416 296.765,115.496 295.500 C 115.575 294.235,115.575 292.165,115.496 290.900 C 115.416 289.635,115.351 290.670,115.351 293.200 M114.909 304.400 C 114.909 305.390,114.987 305.795,115.082 305.300 C 115.178 304.805,115.178 303.995,115.082 303.500 C 114.987 303.005,114.909 303.410,114.909 304.400 M46.093 305.600 C 46.093 306.370,46.175 306.685,46.276 306.300 C 46.376 305.915,46.376 305.285,46.276 304.900 C 46.175 304.515,46.093 304.830,46.093 305.600 M390.000 307.600 C 390.000 308.040,389.820 308.400,389.600 308.400 C 389.380 308.400,389.200 308.760,389.200 309.200 C 389.200 309.733,389.467 310.000,390.000 310.000 C 390.533 310.000,390.800 309.733,390.800 309.200 C 390.800 308.760,390.980 308.400,391.200 308.400 C 391.420 308.400,391.600 308.040,391.600 307.600 C 391.600 307.067,391.333 306.800,390.800 306.800 C 390.267 306.800,390.000 307.067,390.000 307.600 M381.200 312.000 C 381.200 312.220,380.840 312.400,380.400 312.400 C 379.960 312.400,379.600 312.220,379.600 312.000 C 379.600 311.780,379.960 311.600,380.400 311.600 C 380.840 311.600,381.200 311.780,381.200 312.000 M49.600 316.925 C 49.600 316.994,50.185 317.579,50.900 318.225 L 52.200 319.400 51.025 318.100 C 49.930 316.888,49.600 316.616,49.600 316.925 M285.500 323.882 C 285.995 323.978,286.805 323.978,287.300 323.882 C 287.795 323.787,287.390 323.709,286.400 323.709 C 285.410 323.709,285.005 323.787,285.500 323.882 M1.701 327.000 C 1.705 327.880,1.787 328.193,1.883 327.695 C 1.979 327.198,1.975 326.478,1.875 326.095 C 1.775 325.713,1.696 326.120,1.701 327.000 M355.600 345.200 C 355.600 345.733,355.867 346.000,356.400 346.000 C 356.933 346.000,357.200 345.733,357.200 345.200 C 357.200 344.667,356.933 344.400,356.400 344.400 C 355.867 344.400,355.600 344.667,355.600 345.200 M352.400 348.000 C 352.400 348.220,352.040 348.400,351.600 348.400 C 351.160 348.400,350.800 348.220,350.800 348.000 C 350.800 347.780,351.160 347.600,351.600 347.600 C 352.040 347.600,352.400 347.780,352.400 348.000 M350.000 350.000 C 350.000 350.440,349.820 350.800,349.600 350.800 C 349.380 350.800,349.200 350.620,349.200 350.400 C 349.200 350.180,348.840 350.000,348.400 350.000 C 347.960 350.000,347.600 349.820,347.600 349.600 C 347.600 349.380,348.140 349.200,348.800 349.200 C 349.733 349.200,350.000 349.378,350.000 350.000 M12.646 359.700 C 13.486 361.132,16.055 364.800,16.218 364.800 C 16.322 364.800,15.569 363.540,14.545 362.000 C 13.520 360.460,12.608 359.200,12.518 359.200 C 12.427 359.200,12.485 359.425,12.646 359.700 M18.800 368.525 C 18.800 368.594,19.385 369.179,20.100 369.825 L 21.400 371.000 20.225 369.700 C 19.130 368.488,18.800 368.216,18.800 368.525 M26.138 376.089 C 28.567 378.448,30.629 380.304,30.719 380.214 C 30.810 380.123,30.190 379.456,29.342 378.732 C 28.494 378.007,26.432 376.151,24.761 374.607 C 23.089 373.063,23.709 373.730,26.138 376.089 M112.400 376.400 C 112.400 376.840,112.580 377.200,112.800 377.200 C 113.020 377.200,113.200 376.840,113.200 376.400 C 113.200 375.960,113.020 375.600,112.800 375.600 C 112.580 375.600,112.400 375.960,112.400 376.400 M325.200 379.200 C 325.200 379.420,324.840 379.600,324.400 379.600 C 323.867 379.600,323.600 379.867,323.600 380.400 C 323.600 380.933,323.867 381.200,324.400 381.200 C 324.840 381.200,325.200 381.020,325.200 380.800 C 325.200 380.580,325.560 380.400,326.000 380.400 C 326.533 380.400,326.800 380.133,326.800 379.600 C 326.800 379.067,326.533 378.800,326.000 378.800 C 325.560 378.800,325.200 378.980,325.200 379.200 M31.200 380.525 C 31.200 380.624,31.861 381.209,32.668 381.825 C 33.476 382.441,34.011 382.741,33.856 382.491 C 33.540 381.979,31.200 380.247,31.200 380.525 M39.200 386.190 C 39.200 386.294,39.785 386.665,40.500 387.014 L 41.800 387.648 40.800 386.833 C 39.837 386.048,39.200 385.792,39.200 386.190 M62.433 395.744 C 62.905 396.150,64.843 396.393,64.610 396.016 C 64.468 395.787,63.883 395.600,63.310 395.600 C 62.736 395.600,62.342 395.665,62.433 395.744 M66.433 396.547 C 66.900 396.958,69.657 397.216,69.416 396.826 C 69.271 396.591,68.503 396.400,67.710 396.400 C 66.916 396.400,66.342 396.466,66.433 396.547 M74.200 397.615 C 77.873 398.071,80.318 398.064,79.600 397.600 C 79.270 397.387,77.380 397.236,75.400 397.265 C 71.842 397.317,71.828 397.321,74.200 397.615 " stroke="none" fill="#049374" fill-rule="evenodd"></path><path id="path3" d="M268.700 75.093 C 269.635 75.177,271.165 75.177,272.100 75.093 C 273.035 75.009,272.270 74.940,270.400 74.940 C 268.530 74.940,267.765 75.009,268.700 75.093 M276.900 75.097 C 278.385 75.174,280.815 75.174,282.300 75.097 C 283.785 75.020,282.570 74.957,279.600 74.957 C 276.630 74.957,275.415 75.020,276.900 75.097 M60.185 93.300 L 58.200 95.400 60.300 93.415 C 62.251 91.571,62.583 91.200,62.285 91.200 C 62.222 91.200,61.277 92.145,60.185 93.300 M257.300 173.876 C 257.685 173.976,258.315 173.976,258.700 173.876 C 259.085 173.775,258.770 173.693,258.000 173.693 C 257.230 173.693,256.915 173.775,257.300 173.876 M332.974 207.558 C 333.123 207.799,333.616 208.195,334.071 208.438 C 334.662 208.754,334.820 208.756,334.626 208.442 C 334.477 208.201,333.984 207.805,333.529 207.562 C 332.938 207.246,332.780 207.244,332.974 207.558 M335.600 209.306 C 335.600 209.394,336.365 210.074,337.300 210.817 C 338.235 211.560,338.746 211.852,338.436 211.465 C 337.851 210.737,335.600 209.023,335.600 209.306 M342.783 216.300 C 343.526 217.235,344.206 218.000,344.294 218.000 C 344.577 218.000,342.863 215.749,342.135 215.164 C 341.748 214.854,342.040 215.365,342.783 216.300 M276.928 246.000 C 276.928 247.430,277.001 248.015,277.089 247.300 C 277.178 246.585,277.178 245.415,277.089 244.700 C 277.001 243.985,276.928 244.570,276.928 246.000 M271.023 262.322 C 269.072 264.571,269.068 264.579,270.755 263.000 C 272.176 261.669,273.547 259.938,273.114 260.022 C 273.051 260.034,272.110 261.069,271.023 262.322 M260.800 267.200 L 259.800 267.520 260.800 267.532 C 261.350 267.538,262.160 267.389,262.600 267.200 L 263.400 266.856 262.600 266.868 C 262.160 266.874,261.350 267.024,260.800 267.200 M198.900 267.897 C 200.385 267.974,202.815 267.974,204.300 267.897 C 205.785 267.820,204.570 267.757,201.600 267.757 C 198.630 267.757,197.415 267.820,198.900 267.897 M220.700 267.899 C 224.275 267.966,230.125 267.966,233.700 267.899 C 237.275 267.833,234.350 267.779,227.200 267.779 C 220.050 267.779,217.125 267.833,220.700 267.899 M248.120 267.898 C 250.055 267.972,253.115 267.971,254.920 267.897 C 256.724 267.823,255.140 267.763,251.400 267.764 C 247.660 267.764,246.184 267.825,248.120 267.898 M189.700 268.287 C 190.305 268.378,191.295 268.378,191.900 268.287 C 192.505 268.195,192.010 268.120,190.800 268.120 C 189.590 268.120,189.095 268.195,189.700 268.287 M393.200 300.800 C 393.200 301.020,393.663 301.200,394.229 301.200 C 394.794 301.200,395.514 301.457,395.829 301.771 C 397.089 303.032,396.553 304.400,394.800 304.400 C 393.920 304.400,393.200 304.580,393.200 304.800 C 393.200 305.020,393.560 305.200,394.000 305.200 C 394.533 305.200,394.800 305.467,394.800 306.000 C 394.800 306.533,394.533 306.800,394.000 306.800 C 393.560 306.800,393.200 306.620,393.200 306.400 C 393.200 305.786,390.418 305.925,389.771 306.571 C 389.457 306.886,389.200 307.426,389.200 307.771 C 389.200 308.117,389.020 308.400,388.800 308.400 C 388.580 308.400,388.400 308.940,388.400 309.600 C 388.400 310.667,388.267 310.800,387.200 310.800 C 386.540 310.800,386.000 310.980,386.000 311.200 C 386.000 311.420,386.360 311.600,386.800 311.600 C 387.333 311.600,387.600 311.867,387.600 312.400 C 387.600 312.933,387.333 313.200,386.800 313.200 C 386.360 313.200,386.000 313.020,386.000 312.800 C 386.000 312.580,385.820 312.400,385.600 312.400 C 385.380 312.400,385.200 312.760,385.200 313.200 C 385.200 313.640,385.380 314.000,385.600 314.000 C 385.820 314.000,386.000 314.360,386.000 314.800 C 386.000 315.333,385.733 315.600,385.200 315.600 C 384.760 315.600,384.400 315.420,384.400 315.200 C 384.400 314.980,384.220 314.800,384.000 314.800 C 383.780 314.800,383.600 315.160,383.600 315.600 C 383.600 316.133,383.333 316.400,382.800 316.400 C 382.267 316.400,382.000 316.133,382.000 315.600 C 382.000 314.978,381.733 314.800,380.800 314.800 C 379.778 314.800,379.600 314.952,379.600 315.829 C 379.600 316.986,380.427 318.000,381.371 318.000 C 381.733 318.000,382.000 318.339,382.000 318.800 C 382.000 319.333,381.733 319.600,381.200 319.600 C 380.760 319.600,380.400 319.420,380.400 319.200 C 380.400 318.980,380.040 318.800,379.600 318.800 C 379.160 318.800,378.800 318.980,378.800 319.200 C 378.800 319.420,378.980 319.600,379.200 319.600 C 379.420 319.600,379.600 319.960,379.600 320.400 C 379.600 320.840,379.420 321.200,379.200 321.200 C 378.980 321.200,378.800 321.560,378.800 322.000 C 378.800 322.533,378.533 322.800,378.000 322.800 C 377.100 322.800,376.866 321.423,377.700 321.033 C 378.100 320.847,378.100 320.753,377.700 320.567 C 377.425 320.438,377.200 319.808,377.200 319.167 C 377.200 318.525,377.020 318.000,376.800 318.000 C 376.580 318.000,376.400 318.345,376.400 318.767 C 376.400 319.188,376.175 319.638,375.900 319.767 C 375.500 319.953,375.500 320.047,375.900 320.233 C 376.492 320.509,376.581 322.800,376.000 322.800 C 375.780 322.800,375.600 323.160,375.600 323.600 C 375.600 324.133,375.333 324.400,374.800 324.400 C 374.360 324.400,374.000 324.220,374.000 324.000 C 374.000 323.780,373.820 323.600,373.600 323.600 C 373.006 323.600,373.116 324.773,373.771 325.429 C 374.086 325.743,374.626 326.000,374.971 326.000 C 375.333 326.000,375.600 326.339,375.600 326.800 C 375.600 327.333,375.333 327.600,374.800 327.600 C 374.360 327.600,374.000 327.420,374.000 327.200 C 374.000 326.980,373.640 326.800,373.200 326.800 C 372.760 326.800,372.400 326.980,372.400 327.200 C 372.400 327.420,372.040 327.600,371.600 327.600 C 371.160 327.600,370.800 327.780,370.800 328.000 C 370.800 328.220,370.440 328.400,370.000 328.400 C 369.312 328.400,369.200 328.667,369.200 330.312 C 369.200 331.765,369.008 332.362,368.400 332.800 C 367.960 333.117,367.600 333.697,367.600 334.088 C 367.600 334.652,367.267 334.800,366.000 334.800 C 364.489 334.800,364.400 334.867,364.400 336.000 C 364.400 336.933,364.578 337.200,365.200 337.200 C 365.733 337.200,366.000 337.467,366.000 338.000 C 366.000 339.103,364.132 339.074,363.162 337.956 C 362.025 336.646,361.200 337.746,361.200 340.571 C 361.200 341.797,361.020 342.800,360.800 342.800 C 360.580 342.800,360.400 343.160,360.400 343.600 C 360.400 344.133,360.133 344.400,359.600 344.400 C 359.160 344.400,358.800 344.220,358.800 344.000 C 358.800 343.780,358.440 343.600,358.000 343.600 C 357.467 343.600,357.200 343.333,357.200 342.800 C 357.200 342.360,357.380 342.000,357.600 342.000 C 358.194 342.000,358.084 340.827,357.429 340.171 C 356.690 339.433,356.400 339.449,356.400 340.229 C 356.400 341.037,355.437 342.000,354.629 342.000 C 354.283 342.000,354.000 342.180,354.000 342.400 C 354.000 342.620,354.180 342.800,354.400 342.800 C 354.620 342.800,354.800 343.520,354.800 344.400 C 354.800 345.280,354.620 346.000,354.400 346.000 C 354.180 346.000,354.000 346.360,354.000 346.800 C 354.000 347.333,354.267 347.600,354.800 347.600 C 355.333 347.600,355.600 347.867,355.600 348.400 C 355.600 349.022,355.333 349.200,354.400 349.200 C 353.467 349.200,353.200 349.378,353.200 350.000 C 353.200 350.461,352.933 350.800,352.571 350.800 C 352.226 350.800,351.686 351.057,351.371 351.371 C 351.057 351.686,350.800 352.226,350.800 352.571 C 350.800 353.321,350.152 353.410,349.864 352.700 C 349.711 352.322,349.548 352.347,349.200 352.800 C 348.852 353.253,348.689 353.278,348.536 352.900 C 348.196 352.061,346.800 352.302,346.800 353.200 C 346.800 353.822,347.067 354.000,348.000 354.000 C 348.933 354.000,349.200 354.178,349.200 354.800 C 349.200 355.333,348.933 355.600,348.400 355.600 C 347.960 355.600,347.600 355.780,347.600 356.000 C 347.600 356.220,346.880 356.400,346.000 356.400 C 344.667 356.400,344.400 356.267,344.400 355.600 C 344.400 355.067,344.667 354.800,345.200 354.800 C 345.640 354.800,346.000 354.620,346.000 354.400 C 346.000 353.806,344.827 353.916,344.171 354.571 C 343.857 354.886,343.600 355.606,343.600 356.171 C 343.600 356.933,343.393 357.200,342.800 357.200 C 342.360 357.200,342.000 357.380,342.000 357.600 C 342.000 357.820,342.720 358.000,343.600 358.000 C 344.933 358.000,345.200 358.133,345.200 358.800 C 345.200 359.422,344.933 359.600,344.000 359.600 C 342.867 359.600,342.800 359.689,342.800 361.200 C 342.800 362.533,342.667 362.800,342.000 362.800 C 341.560 362.800,341.200 362.620,341.200 362.400 C 341.200 362.180,341.380 362.000,341.600 362.000 C 341.820 362.000,342.000 361.820,342.000 361.600 C 342.000 361.380,341.640 361.200,341.200 361.200 C 340.667 361.200,340.400 360.933,340.400 360.400 C 340.400 359.453,340.147 359.396,339.371 360.171 C 338.539 361.004,338.664 362.000,339.600 362.000 C 340.133 362.000,340.400 362.267,340.400 362.800 C 340.400 363.422,340.133 363.600,339.200 363.600 C 338.540 363.600,338.000 363.780,338.000 364.000 C 338.000 364.220,338.180 364.400,338.400 364.400 C 338.620 364.400,338.800 364.760,338.800 365.200 C 338.800 365.733,338.533 366.000,338.000 366.000 C 337.378 366.000,337.200 366.267,337.200 367.200 C 337.200 368.133,337.022 368.400,336.400 368.400 C 335.960 368.400,335.600 368.580,335.600 368.800 C 335.600 369.020,335.240 369.200,334.800 369.200 C 334.360 369.200,334.000 369.020,334.000 368.800 C 334.000 368.580,333.820 368.400,333.600 368.400 C 333.380 368.400,333.200 368.940,333.200 369.600 C 333.200 370.533,333.022 370.800,332.400 370.800 C 331.867 370.800,331.600 370.533,331.600 370.000 C 331.600 369.560,331.420 369.200,331.200 369.200 C 330.980 369.200,330.800 369.740,330.800 370.400 C 330.800 371.060,330.980 371.600,331.200 371.600 C 331.777 371.600,331.693 373.090,331.100 373.367 C 330.700 373.553,330.700 373.647,331.100 373.833 C 331.913 374.213,331.704 375.600,330.833 375.600 C 330.412 375.600,329.992 375.377,329.901 375.104 C 329.681 374.443,328.400 375.695,328.400 376.571 C 328.400 377.038,327.988 377.200,326.800 377.200 C 325.467 377.200,325.200 377.067,325.200 376.400 C 325.200 375.960,325.020 375.600,324.800 375.600 C 324.580 375.600,324.400 376.320,324.400 377.200 C 324.400 378.533,324.267 378.800,323.600 378.800 C 322.907 378.800,322.800 379.067,322.800 380.800 C 322.800 382.533,322.693 382.800,322.000 382.800 C 321.560 382.800,321.200 382.980,321.200 383.200 C 321.200 383.420,321.560 383.600,322.000 383.600 C 322.533 383.600,322.800 383.867,322.800 384.400 C 322.800 384.933,322.533 385.200,322.000 385.200 C 321.560 385.200,321.200 385.020,321.200 384.800 C 321.200 384.580,320.480 384.400,319.600 384.400 C 318.720 384.400,318.000 384.220,318.000 384.000 C 318.000 383.780,317.820 383.600,317.600 383.600 C 317.380 383.600,317.200 384.140,317.200 384.800 C 317.200 385.460,317.020 386.000,316.800 386.000 C 316.580 386.000,316.400 386.540,316.400 387.200 C 316.400 388.133,316.222 388.400,315.600 388.400 C 315.160 388.400,314.800 388.220,314.800 388.000 C 314.800 387.780,314.260 387.600,313.600 387.600 C 312.533 387.600,312.400 387.733,312.400 388.800 C 312.400 389.460,312.580 390.000,312.800 390.000 C 313.020 390.000,313.200 390.360,313.200 390.800 C 313.200 391.493,312.933 391.600,311.200 391.600 C 310.100 391.600,309.200 391.780,309.200 392.000 C 309.200 392.220,309.920 392.400,310.800 392.400 C 312.133 392.400,312.400 392.533,312.400 393.200 C 312.400 393.822,312.133 394.000,311.200 394.000 C 310.540 394.000,310.000 394.180,310.000 394.400 C 310.000 394.620,309.280 394.800,308.400 394.800 C 307.067 394.800,306.800 394.933,306.800 395.600 C 306.800 396.040,306.620 396.400,306.400 396.400 C 306.180 396.400,306.000 396.580,306.000 396.800 C 306.000 397.020,306.540 397.200,307.200 397.200 C 307.860 397.200,308.400 397.380,308.400 397.600 C 308.400 398.856,327.841 397.732,335.930 396.008 C 366.670 389.455,391.354 363.484,396.764 332.000 C 398.308 323.013,398.613 302.000,397.200 302.000 C 396.667 302.000,396.400 301.733,396.400 301.200 C 396.400 300.533,396.133 300.400,394.800 300.400 C 393.920 300.400,393.200 300.580,393.200 300.800 M391.600 307.600 C 391.600 308.040,391.420 308.400,391.200 308.400 C 390.980 308.400,390.800 308.760,390.800 309.200 C 390.800 309.733,390.533 310.000,390.000 310.000 C 389.467 310.000,389.200 309.733,389.200 309.200 C 389.200 308.760,389.380 308.400,389.600 308.400 C 389.820 308.400,390.000 308.040,390.000 307.600 C 390.000 307.067,390.267 306.800,390.800 306.800 C 391.333 306.800,391.600 307.067,391.600 307.600 M379.600 312.000 C 379.600 312.220,379.960 312.400,380.400 312.400 C 380.840 312.400,381.200 312.220,381.200 312.000 C 381.200 311.780,380.840 311.600,380.400 311.600 C 379.960 311.600,379.600 311.780,379.600 312.000 M357.200 345.200 C 357.200 345.733,356.933 346.000,356.400 346.000 C 355.867 346.000,355.600 345.733,355.600 345.200 C 355.600 344.667,355.867 344.400,356.400 344.400 C 356.933 344.400,357.200 344.667,357.200 345.200 M350.800 348.000 C 350.800 348.220,351.160 348.400,351.600 348.400 C 352.040 348.400,352.400 348.220,352.400 348.000 C 352.400 347.780,352.040 347.600,351.600 347.600 C 351.160 347.600,350.800 347.780,350.800 348.000 M347.600 349.600 C 347.600 349.820,347.960 350.000,348.400 350.000 C 348.840 350.000,349.200 350.180,349.200 350.400 C 349.200 350.620,349.380 350.800,349.600 350.800 C 349.820 350.800,350.000 350.440,350.000 350.000 C 350.000 349.378,349.733 349.200,348.800 349.200 C 348.140 349.200,347.600 349.380,347.600 349.600 M326.800 379.600 C 326.800 380.133,326.533 380.400,326.000 380.400 C 325.560 380.400,325.200 380.580,325.200 380.800 C 325.200 381.020,324.840 381.200,324.400 381.200 C 323.867 381.200,323.600 380.933,323.600 380.400 C 323.600 379.867,323.867 379.600,324.400 379.600 C 324.840 379.600,325.200 379.420,325.200 379.200 C 325.200 378.980,325.560 378.800,326.000 378.800 C 326.533 378.800,326.800 379.067,326.800 379.600 " stroke="none" fill="#049c77" fill-rule="evenodd"></path><path id="path4" d="M70.600 1.231 C 64.874 2.210,63.146 2.555,60.400 3.268 C 32.363 10.550,9.595 33.639,3.006 61.471 C 0.660 71.378,0.800 62.626,0.800 199.798 C 0.800 275.429,0.948 326.733,1.171 328.033 C 1.375 329.225,1.756 331.460,2.018 333.000 C 2.528 335.994,3.649 340.477,4.720 343.800 C 12.133 366.800,32.400 387.067,55.400 394.480 C 58.723 395.551,63.206 396.672,66.200 397.182 C 67.740 397.444,69.975 397.825,71.167 398.029 C 74.356 398.575,324.942 398.523,328.354 397.975 C 347.914 394.837,362.281 387.773,375.027 375.027 C 387.803 362.251,395.223 347.090,397.982 328.123 C 398.523 324.399,398.569 74.323,398.029 71.167 C 397.825 69.975,397.444 67.740,397.182 66.200 C 396.672 63.206,395.551 58.723,394.480 55.400 C 387.076 32.427,366.773 12.124,343.800 4.720 C 340.477 3.649,335.994 2.528,333.000 2.018 C 331.460 1.756,329.225 1.375,328.033 1.171 C 325.277 0.699,73.369 0.758,70.600 1.231 M326.458 1.621 C 364.060 5.438,393.541 34.976,397.586 72.884 C 398.140 78.081,398.156 320.709,397.602 325.800 C 393.420 364.245,365.307 392.838,327.202 397.402 C 321.150 398.126,79.692 398.307,72.800 397.592 C 34.930 393.663,5.174 363.744,1.598 326.000 C 0.772 317.286,1.265 71.790,2.117 67.600 C 9.591 30.827,38.252 4.167,73.200 1.478 C 78.157 1.097,322.654 1.234,326.458 1.621 M133.000 75.188 C 103.987 75.486,104.016 75.484,90.400 78.378 C 64.566 83.868,49.907 98.525,46.173 122.600 C 45.314 128.134,45.341 296.079,46.202 304.188 C 47.464 316.088,50.587 320.411,59.049 321.975 C 62.814 322.671,97.538 322.526,100.965 321.800 C 107.923 320.326,112.596 316.797,114.030 311.934 C 115.031 308.536,115.205 297.189,115.198 235.592 C 115.189 162.617,115.217 161.823,118.116 154.200 C 122.526 142.603,132.385 134.757,146.400 131.690 C 147.711 131.403,147.907 131.283,147.120 131.248 C 138.276 130.855,123.725 141.077,119.004 151.000 C 114.597 160.262,114.715 157.797,114.624 241.816 C 114.547 313.020,114.633 309.858,112.637 314.065 C 111.331 316.818,107.947 319.209,103.107 320.800 C 100.103 321.788,74.738 322.361,63.483 321.695 C 51.798 321.004,48.296 317.600,46.717 305.400 C 45.950 299.469,45.959 125.390,46.727 121.600 C 47.844 116.085,48.904 112.374,50.268 109.200 C 57.403 92.594,70.216 82.945,90.600 78.828 C 91.920 78.562,93.630 78.194,94.400 78.011 C 95.170 77.829,97.330 77.461,99.200 77.195 C 101.070 76.929,103.500 76.541,104.600 76.333 C 110.990 75.124,290.966 75.139,297.000 76.349 C 298.100 76.570,300.350 76.969,302.000 77.236 C 304.555 77.650,308.955 78.678,313.800 79.993 C 335.166 85.793,348.292 100.306,352.334 122.600 C 352.573 123.920,352.998 126.260,353.279 127.800 C 353.988 131.688,353.976 149.949,353.263 154.200 C 348.431 182.992,340.488 192.045,314.800 198.037 C 309.894 199.182,310.405 199.889,317.397 201.635 C 333.606 205.682,345.088 215.798,349.933 230.300 C 351.481 234.933,352.098 237.645,353.278 245.000 C 353.964 249.277,353.964 266.723,353.278 271.000 C 351.524 281.933,350.517 285.530,347.255 292.507 C 340.986 305.914,328.381 315.577,312.200 319.377 C 306.454 320.727,306.682 320.682,300.200 321.778 C 291.069 323.323,289.282 323.365,232.200 323.383 C 172.800 323.401,173.439 323.421,169.200 321.454 C 166.874 320.375,164.440 317.923,163.190 315.400 L 162.200 313.400 162.200 296.400 L 162.200 279.400 163.135 277.518 C 164.325 275.126,167.070 272.588,169.729 271.423 C 171.706 270.556,173.348 270.287,183.800 269.116 C 186.912 268.768,198.442 268.608,223.200 268.571 C 245.472 268.538,259.073 268.367,260.600 268.101 C 267.272 266.940,272.120 263.818,274.174 259.358 C 274.518 258.611,275.067 257.415,275.393 256.700 C 281.025 244.343,275.660 229.714,263.970 225.550 L 261.400 224.634 218.000 224.383 C 156.786 224.029,160.013 225.408,160.013 199.600 C 160.013 185.721,160.670 182.156,163.809 179.018 C 168.240 174.587,170.017 174.442,220.400 174.402 C 263.306 174.369,261.995 174.435,266.907 172.067 C 277.711 166.860,280.934 150.331,273.455 138.486 C 270.951 134.521,267.001 132.059,261.431 130.993 C 258.144 130.365,154.071 130.118,150.000 130.730 C 149.010 130.878,173.337 131.029,204.061 131.063 C 263.360 131.131,262.410 131.101,266.678 133.053 C 280.349 139.306,280.273 165.260,266.566 171.675 C 261.559 174.018,262.224 173.985,219.000 173.997 C 156.394 174.014,159.346 172.644,159.665 201.539 L 159.805 214.200 160.878 216.400 C 163.265 221.293,165.967 222.929,173.721 224.177 C 177.035 224.710,183.242 224.800,216.906 224.800 C 257.265 224.800,261.013 224.924,264.876 226.392 C 281.603 232.748,280.984 261.331,264.000 266.829 L 261.000 267.800 231.104 267.843 C 172.500 267.927,167.316 268.665,162.547 277.600 C 161.851 278.905,161.800 280.176,161.800 296.400 L 161.800 313.800 162.899 315.885 C 165.333 320.501,168.417 322.435,174.924 323.426 C 179.498 324.122,278.819 324.259,288.400 323.582 C 326.671 320.879,346.594 306.986,352.336 279.000 C 354.029 270.749,354.200 268.800,354.192 257.800 C 354.185 247.125,354.078 245.848,352.519 237.800 C 348.653 217.849,335.660 204.992,314.700 200.379 C 311.959 199.776,311.812 199.384,314.100 198.788 C 339.122 192.266,347.361 184.474,352.155 162.800 C 354.047 154.242,354.501 149.140,354.288 138.800 C 353.470 99.193,335.601 80.393,294.200 75.585 C 289.829 75.077,171.937 74.787,133.000 75.188 " stroke="none" fill="#59a79a" fill-rule="evenodd"></path></g></svg>