<svg width="83" height="51" viewBox="0 0 83 51" fill="none" xmlns="http://www.w3.org/2000/svg">
<g clip-path="url(#clip0)">
<path d="M41.0239 51.0002C40.75 51.0002 40.478 50.9281 40.2378 50.7894L37.7354 49.303C37.3617 49.0933 37.5441 49.0191 37.6673 48.9764C38.1657 48.8014 38.2668 48.7618 38.7987 48.4588C38.8546 48.4268 38.9278 48.438 38.985 48.4719L40.9074 49.6164C40.9768 49.6541 41.0754 49.6541 41.1397 49.6164L48.6353 45.2756C48.7048 45.2361 48.7498 45.1551 48.7498 45.0723V36.3944C48.7498 36.3078 48.7048 36.2306 48.6338 36.1873L41.1412 31.8502C41.0718 31.8088 40.9799 31.8088 40.9104 31.8502L33.4193 36.1873C33.3467 36.2287 33.3005 36.3097 33.3005 36.3925V45.0704C33.3005 45.1532 33.3456 45.2323 33.4169 45.2718L35.4695 46.4615C36.584 47.0206 37.2651 46.3617 37.2651 45.6991V37.1342C37.2651 37.0118 37.3607 36.9177 37.4827 36.9177H38.4321C38.5503 36.9177 38.6479 37.0118 38.6479 37.1342V45.7029C38.6479 47.1938 37.8373 48.0503 36.4282 48.0503C35.9948 48.0503 35.6534 48.0503 34.7002 47.5797L32.7339 46.4427C32.4948 46.3027 32.2965 46.1024 32.1585 45.8617C32.0206 45.6209 31.9479 45.3481 31.9478 45.0704V36.3925C31.9478 35.8278 32.248 35.3007 32.7339 35.0221L40.237 30.6794C40.7117 30.4102 41.3422 30.4102 41.8131 30.6794L49.3068 35.024C49.5459 35.1635 49.7443 35.3635 49.8822 35.6039C50.0202 35.8444 50.0928 36.1169 50.093 36.3944V45.0723C50.093 45.6351 49.7909 46.1603 49.3068 46.4427L41.8131 50.7854C41.5729 50.9242 41.3004 50.9969 41.0232 50.9962" fill="#689F63"/>
<path d="M43.3389 45.0205C40.0592 45.0205 39.3716 43.5101 39.3716 42.2432C39.3716 42.1227 39.4684 42.0267 39.5887 42.0267H40.5568C40.6638 42.0267 40.7538 42.1049 40.7707 42.2108C40.9171 43.2006 41.3523 43.6998 43.3355 43.6998C44.9153 43.6998 45.587 43.3418 45.587 42.5013C45.587 42.0175 45.3957 41.658 42.9415 41.417C40.8889 41.2137 39.6206 40.7601 39.6206 39.1129C39.6206 37.5957 40.8964 36.6922 43.0335 36.6922C45.4332 36.6922 46.6227 37.528 46.7728 39.3238C46.7753 39.354 46.7716 39.3844 46.7617 39.413C46.7519 39.4417 46.7363 39.468 46.7159 39.4903C46.6954 39.5125 46.6706 39.5303 46.6429 39.5425C46.6153 39.5547 46.5854 39.561 46.5552 39.561H45.5814C45.4801 39.561 45.3919 39.4894 45.3713 39.3915C45.1367 38.3506 44.5701 38.0174 43.0297 38.0174C41.3054 38.0174 41.1047 38.6198 41.1047 39.0715C41.1047 39.6193 41.3411 39.7793 43.6676 40.088C45.9717 40.3949 47.0655 40.8278 47.0655 42.4523C47.0655 44.09 45.7034 45.0294 43.328 45.0294L43.3389 45.0205ZM52.4579 35.8263H52.7093C52.9157 35.8263 52.9551 35.6813 52.9551 35.5966C52.9551 35.3745 52.8031 35.3745 52.7187 35.3745H52.4598L52.4579 35.8263ZM52.1521 35.1147H52.7093C52.9007 35.1147 53.2759 35.1147 53.2759 35.5439C53.2759 35.8432 53.0846 35.9053 52.9701 35.943C53.1934 35.958 53.2084 36.1049 53.2384 36.3119C53.2534 36.4418 53.2778 36.6658 53.3228 36.7411H52.9795C52.9701 36.6658 52.9176 36.2517 52.9176 36.2291C52.8951 36.1369 52.8632 36.0917 52.7487 36.0917H52.4654V36.743H52.1521V35.1147ZM51.4822 35.9241C51.4822 36.598 52.0245 37.1439 52.6905 37.1439C53.3622 37.1439 53.9045 36.5868 53.9045 35.9241C53.9045 35.2484 53.3547 34.7119 52.6887 34.7119C52.032 34.7119 51.4804 35.2408 51.4804 35.9223L51.4822 35.9241ZM54.1371 35.9279C54.1371 36.7261 53.4861 37.3774 52.6924 37.3774C51.9044 37.3774 51.2477 36.7336 51.2477 35.9279C51.2477 35.1072 51.9194 34.4785 52.6924 34.4785C53.4711 34.4785 54.1353 35.1091 54.1353 35.9279" fill="#689F63"/>
<path fill-rule="evenodd" clip-rule="evenodd" d="M17.8124 17.0454C17.8124 16.699 17.6304 16.3809 17.3324 16.2087L9.38539 11.6212C9.25247 11.5435 9.10237 11.5002 8.9486 11.4951H8.86642C8.71407 11.5007 8.56378 11.5422 8.42738 11.6212L0.480696 16.2087C0.334585 16.294 0.213312 16.4162 0.128969 16.5632C0.0446249 16.7101 0.000157508 16.8767 0 17.0463L0.0174491 29.4025C0.0174491 29.5738 0.105633 29.7338 0.255733 29.8185C0.402081 29.9089 0.585954 29.9089 0.732301 29.8185L5.45671 27.1041C5.75503 26.926 5.93703 26.6112 5.93703 26.2683V20.4958C5.93668 20.3268 5.98083 20.1607 6.06501 20.0143C6.14918 19.8678 6.2704 19.7463 6.41641 19.6619L8.42775 18.4997C8.57363 18.4147 8.73937 18.37 8.90807 18.3702C9.07243 18.3702 9.24017 18.4128 9.38539 18.4996L11.3958 19.6614C11.6934 19.8327 11.8761 20.1508 11.8761 20.4953V26.2673C11.8761 26.6099 12.0606 26.9262 12.3574 27.1031L17.0788 29.8157C17.1514 29.8591 17.2344 29.882 17.3189 29.882C17.4035 29.882 17.4865 29.8591 17.5591 29.8157C17.6314 29.7731 17.6914 29.7123 17.7331 29.6394C17.7748 29.5664 17.7969 29.4838 17.797 29.3997L17.8124 17.0454ZM55.3127 23.4787C55.3127 23.5647 55.2671 23.6444 55.1926 23.6869L52.463 25.2655C52.4266 25.2865 52.3853 25.2976 52.3432 25.2976C52.3012 25.2976 52.2599 25.2865 52.2234 25.2655L49.4935 23.6869C49.4184 23.6442 49.3734 23.5646 49.3734 23.4787V20.317C49.3734 20.2308 49.4184 20.1514 49.4916 20.1081L52.2197 18.5268C52.2947 18.4836 52.3867 18.4836 52.4617 18.5268L55.1917 20.1081C55.2667 20.1514 55.3117 20.2308 55.3117 20.317L55.3127 23.4787ZM56.05 0.0611409C55.9769 0.0203189 55.8944 -0.000680883 55.8107 0.000210335C55.727 0.00110155 55.645 0.023853 55.5727 0.0662234C55.4264 0.152814 55.3359 0.310937 55.3359 0.482236V12.7179C55.336 12.7771 55.3206 12.8352 55.2911 12.8865C55.2617 12.9377 55.2193 12.9803 55.1682 13.0099C55.1172 13.0395 55.0592 13.055 55.0003 13.055C54.9413 13.055 54.8834 13.0393 54.8324 13.0097L52.8417 11.8593C52.6959 11.7748 52.5305 11.7303 52.3621 11.7303C52.1937 11.7303 52.0283 11.7748 51.8825 11.8593L43.9328 16.4624C43.787 16.5466 43.6658 16.6678 43.5815 16.8138C43.4972 16.9599 43.4527 17.1256 43.4525 17.2944V26.5032C43.4525 26.8477 43.6358 27.1639 43.9328 27.3371L51.8825 31.9434C52.1793 32.1147 52.5448 32.1147 52.8426 31.9434L60.7923 27.3352C61.0887 27.162 61.2726 26.8458 61.2726 26.5013V3.55094C61.2723 3.37935 61.2264 3.21092 61.1397 3.06302C61.053 2.91513 60.9285 2.7931 60.7791 2.70951L56.05 0.0611409ZM82.5227 20.2338C82.6678 20.1491 82.7883 20.0276 82.872 19.8815C82.9557 19.7355 82.9998 19.5699 82.9998 19.4014V17.1696C82.9998 16.8263 82.8178 16.5095 82.5219 16.3367L74.6229 11.736C74.4767 11.651 74.3106 11.6062 74.1416 11.6062C73.9726 11.6062 73.8066 11.651 73.6604 11.736L65.7126 16.3385C65.4142 16.5117 65.2322 16.828 65.2322 17.1725V26.3774C65.2322 26.7238 65.418 27.0438 65.7163 27.2151L73.6135 31.731C73.9043 31.8986 74.2608 31.9004 74.5553 31.7367L79.3323 29.0731C79.4824 28.9884 79.5781 28.8283 79.5781 28.6552C79.5781 28.482 79.4861 28.3201 79.336 28.2354L71.3394 23.631C71.1893 23.5463 71.0974 23.3863 71.0974 23.215V20.3274C71.0974 20.1549 71.1875 19.9961 71.3376 19.9102L73.8255 18.4702C73.9737 18.3836 74.1557 18.3836 74.3039 18.4702L76.7937 19.9102C76.9419 19.9949 77.0339 20.1549 77.0339 20.3262V22.5964C77.0339 22.7677 77.1258 22.9277 77.274 23.0143C77.4222 23.099 77.6061 23.099 77.7543 23.0124L82.5227 20.2338Z" fill="white"/>
<path fill-rule="evenodd" clip-rule="evenodd" d="M74.0255 19.803C74.0534 19.7866 74.0851 19.778 74.1174 19.778C74.1497 19.778 74.1815 19.7866 74.2094 19.803L75.7347 20.6858C75.7918 20.7189 75.8267 20.7799 75.8267 20.8458V22.6134C75.8267 22.6793 75.7918 22.7403 75.7347 22.7734L74.2094 23.6563C74.1815 23.6726 74.1497 23.6813 74.1174 23.6813C74.0851 23.6813 74.0534 23.6726 74.0255 23.6563L72.501 22.7734C72.4727 22.7575 72.4491 22.7342 72.4326 22.7061C72.4161 22.678 72.4074 22.646 72.4072 22.6134V20.8458C72.4072 20.7799 72.441 20.7189 72.4992 20.6858L74.0255 19.803Z" fill="#689F63"/>
<path d="M47.4798 15.5821L25.2059 4.6283L13.7852 28.003L36.0585 38.9573L47.4798 15.5821Z" fill="url(#paint0_linear)"/>
<path d="M12.3394 18.8219L28.067 40.1784L48.8672 24.7603L33.1386 3.40436L12.3394 18.8219Z" fill="url(#paint1_linear)"/>
<path d="M22.2739 11.6555V31.8783H39.476V11.6555H22.2739Z" fill="url(#paint2_linear)"/>
</g>
<defs>
<linearGradient id="paint0_linear" x1="36.3362" y1="10.0879" x2="24.8558" y2="33.4313" gradientUnits="userSpaceOnUse">
<stop offset="0.3" stop-color="#3E863D"/>
<stop offset="0.5" stop-color="#55934F"/>
<stop offset="0.8" stop-color="#5AAD45"/>
</linearGradient>
<linearGradient id="paint1_linear" x1="20.2975" y1="29.6226" x2="41.1465" y2="14.268" gradientUnits="userSpaceOnUse">
<stop offset="0.57" stop-color="#3E863D"/>
<stop offset="0.72" stop-color="#619857"/>
<stop offset="1" stop-color="#76AC64"/>
</linearGradient>
<linearGradient id="paint2_linear" x1="22.2797" y1="21.7675" x2="39.4792" y2="21.7675" gradientUnits="userSpaceOnUse">
<stop offset="0.16" stop-color="#6BBF47"/>
<stop offset="0.38" stop-color="#79B461"/>
<stop offset="0.47" stop-color="#75AC64"/>
<stop offset="0.7" stop-color="#659E5A"/>
<stop offset="0.9" stop-color="#3E863D"/>
</linearGradient>
<clipPath id="clip0">
<rect width="83" height="51" fill="white"/>
</clipPath>
</defs>
</svg>
