<svg xmlns="http://www.w3.org/2000/svg" width="12" height="9" viewBox="0 0 12 9">
  <path id="Path_10" data-name="Path 10" d="M583.785,83.152a1.248,1.248,0,0,0,.185.955c.168.182.49.171,1,.175,1.07.032,1.157-.016,1.368-.258a2.138,2.138,0,0,0,.1-.873V78.645a2.057,2.057,0,0,1,.456-.954,1.732,1.732,0,0,1,.921-.391h4.158a.744.744,0,0,1,.792.794.715.715,0,0,1-.792.767H588.7s-.508.094-.508.549a3.063,3.063,0,0,0,.093,1.035.346.346,0,0,0,.416.233h3.355a.782.782,0,0,1,.706.832.688.688,0,0,1-.706.755l-3.355.067s-.291.021-.359.212a2.069,2.069,0,0,0-.057.8c.01.319-.047.449.057.684a.46.46,0,0,0,.359.258h4.689a2.1,2.1,0,0,0,2.36-2.072c.034-2.26-1.658-2.435-1.658-2.435s1.795.1,1.658-2.28a2.174,2.174,0,0,0-2.36-2.2h-7.141a3.243,3.243,0,0,0-1.793.53,1.67,1.67,0,0,0-.673,1.394Z" transform="translate(-583.76 -75.291)" fill="#fff"/>
</svg>
