<svg width="60" height="69" viewBox="0 0 60 69" fill="none" xmlns="http://www.w3.org/2000/svg">
<path d="M30.3557 0.0012207C29.4008 0.0012207 28.4673 0.283181 27.6734 0.811446C26.8794 1.33971 26.2605 2.09055 25.8951 2.96903C25.5297 3.8475 25.4341 4.81414 25.6204 5.74672C25.8067 6.67931 26.2665 7.53594 26.9417 8.20829C27.6169 8.88064 28.4772 9.33852 29.4138 9.52402C30.3503 9.70952 31.3211 9.61432 32.2034 9.25044C33.0856 8.88657 33.8396 8.27037 34.3701 7.47976C34.9007 6.68916 35.1838 5.75966 35.1838 4.80881C35.1825 3.53417 34.6734 2.31212 33.7682 1.41082C32.8631 0.509511 31.6358 0.00256644 30.3557 0.0012207V0.0012207ZM30.3557 8.5471C29.613 8.5471 28.887 8.32781 28.2695 7.91695C27.652 7.50608 27.1707 6.92211 26.8864 6.23887C26.6022 5.55563 26.5279 4.80381 26.6728 4.07849C26.8176 3.35317 27.1753 2.68692 27.7004 2.16399C28.2256 1.64106 28.8947 1.28494 29.6231 1.14067C30.3515 0.996392 31.1066 1.07044 31.7927 1.35345C32.4789 1.63645 33.0653 2.11571 33.478 2.73061C33.8906 3.34551 34.1108 4.06843 34.1108 4.80796C34.1097 5.7993 33.7137 6.74971 33.0097 7.4507C32.3057 8.15168 31.3513 8.54598 30.3557 8.5471Z" fill="#00654F"/>
<path d="M36.0975 12.4703C34.8653 10.8771 33.2332 10 31.5001 10H29.5007C27.7676 10 26.1347 10.8771 24.9034 12.4703C23.6132 14.2509 22.9548 16.292 23.0024 18.3633C23.0024 18.7147 23.2259 19 23.5025 19H37.4975C37.7732 19 37.9976 18.7147 37.9976 18.3633C38.0455 16.292 37.3874 14.251 36.0975 12.4703ZM24.024 17.7258C24.274 14.1142 26.6347 11.2735 29.5041 11.2735H31.5035C34.3687 11.2735 36.7268 14.1142 36.9837 17.7258H24.024Z" fill="#00654F"/>
<path d="M7.38085 48.2974C6.42594 48.2974 5.49248 48.5793 4.6985 49.1076C3.90452 49.6359 3.28568 50.3867 2.92026 51.2652C2.55483 52.1436 2.45921 53.1103 2.64551 54.0429C2.8318 54.9754 3.29163 55.8321 3.96686 56.5044C4.64208 57.1768 5.50237 57.6347 6.43893 57.8202C7.37549 58.0057 8.34627 57.9105 9.2285 57.5466C10.1107 57.1827 10.8648 56.5665 11.3953 55.7759C11.9258 54.9853 12.209 54.0558 12.209 53.105C12.2076 51.8303 11.6985 50.6083 10.7934 49.707C9.8882 48.8057 8.66093 48.2987 7.38085 48.2974V48.2974ZM7.38085 56.8432C6.63816 56.8432 5.91215 56.624 5.29462 56.2131C4.6771 55.8022 4.1958 55.2183 3.91158 54.535C3.62737 53.8518 3.55301 53.1 3.6979 52.3746C3.84279 51.6493 4.20043 50.9831 4.72559 50.4601C5.25075 49.9372 5.91985 49.5811 6.64826 49.4368C7.37668 49.2925 8.13171 49.3666 8.81786 49.6496C9.50402 49.9326 10.0905 50.4119 10.5031 51.0267C10.9157 51.6416 11.136 52.3646 11.136 53.1041C11.1348 54.0954 10.7388 55.0459 10.0349 55.7468C9.33089 56.4478 8.37642 56.8421 7.38085 56.8432Z" fill="#00654F"/>
<path d="M13.0975 60.7448C11.8653 58.9746 10.2332 58 8.50012 58H6.50071C4.7676 58 3.13468 58.9746 1.90335 60.7448C0.613162 62.7233 -0.0452352 64.9911 0.00241473 67.2925C0.00241473 67.683 0.225903 68 0.502481 68H14.4975C14.7732 68 14.9976 67.683 14.9976 67.2925C15.0455 64.9911 14.3874 62.7233 13.0975 60.7448ZM1.02396 66.5843C1.27399 62.5713 3.63475 59.415 6.50413 59.415H8.50355C11.3687 59.415 13.7268 62.5713 13.9837 66.5843H1.02396Z" fill="#00654F"/>
<path d="M52.4795 48.2974C51.5246 48.2974 50.5911 48.5793 49.7971 49.1076C49.0032 49.6359 48.3843 50.3867 48.0189 51.2652C47.6535 52.1436 47.5578 53.1103 47.7441 54.0429C47.9304 54.9754 48.3903 55.8321 49.0655 56.5044C49.7407 57.1768 50.601 57.6347 51.5376 57.8202C52.4741 58.0057 53.4449 57.9105 54.3271 57.5466C55.2094 57.1827 55.9634 56.5665 56.4939 55.7759C57.0244 54.9853 57.3076 54.0558 57.3076 53.105C57.3063 51.8303 56.7971 50.6083 55.892 49.707C54.9868 48.8057 53.7596 48.2987 52.4795 48.2974V48.2974ZM52.4795 56.8432C51.7368 56.8432 51.0108 56.624 50.3933 56.2131C49.7757 55.8022 49.2944 55.2183 49.0102 54.535C48.726 53.8518 48.6516 53.1 48.7965 52.3746C48.9414 51.6493 49.2991 50.9831 49.8242 50.4601C50.3494 49.9372 51.0185 49.5811 51.7469 49.4368C52.4753 49.2925 53.2303 49.3666 53.9165 49.6496C54.6027 49.9326 55.1891 50.4119 55.6017 51.0267C56.0144 51.6416 56.2346 52.3646 56.2346 53.1041C56.2335 54.0954 55.8375 55.0459 55.1335 55.7468C54.4295 56.4478 53.4751 56.8421 52.4795 56.8432Z" fill="#00654F"/>
<path d="M58.0972 60.4703C56.865 58.8771 55.233 58 53.4999 58H51.5005C49.7674 58 48.1344 58.8771 46.9031 60.4703C45.6129 62.2509 44.9545 64.292 45.0022 66.3633C45.0022 66.7147 45.2257 67 45.5022 67H59.4972C59.773 67 59.9973 66.7147 59.9973 66.3633C60.0452 64.292 59.3871 62.251 58.0972 60.4703ZM46.0237 65.7258C46.2737 62.1142 48.6345 59.2735 51.5039 59.2735H53.5033C56.3684 59.2735 58.7266 62.1142 58.9835 65.7258H46.0237Z" fill="#00654F"/>
<path d="M5.10543 43.6108C5.0714 43.1346 3.62483 37.2695 7.22847 29.6505C10.8321 22.0316 16.5588 19.082 16.5588 19.082" stroke="#707070" stroke-linecap="round"/>
<path d="M41.5979 18.2087C41.5979 18.2087 47.4233 20.5362 51.7238 27.8145C54.3118 32.3417 55.4266 37.5566 54.9148 42.7408" stroke="#707070" stroke-linecap="round"/>
<path d="M18.3977 62.4811C21.835 64.3052 25.6612 65.2828 29.5558 65.3316C33.4667 65.3496 37.3316 64.4904 40.8637 62.8183" stroke="#707070" stroke-linecap="round"/>
<path d="M31.0176 55.2594H28.2598C27.8089 55.2591 27.3737 55.0942 27.0366 54.796C26.6995 54.4978 26.4838 54.0869 26.4303 53.6411L26.1359 51.3381C25.5545 51.1503 24.9889 50.9171 24.4443 50.6408L22.6071 52.0668C22.2521 52.3449 21.8065 52.483 21.3556 52.4545C20.9048 52.4261 20.4803 52.2331 20.1633 51.9126L18.2215 49.9824C17.9012 49.6671 17.7088 49.2454 17.681 48.7977C17.6532 48.3501 17.792 47.908 18.0709 47.5558L19.5004 45.7231C19.2219 45.1812 18.9877 44.6179 18.8001 44.0386L16.4856 43.7455C16.0381 43.6905 15.6263 43.4745 15.3276 43.1382C15.0289 42.8019 14.8639 42.3685 14.8638 41.9195V39.1734C14.8641 38.7244 15.0297 38.2911 15.3292 37.9554C15.6287 37.6197 16.0413 37.405 16.489 37.3517L18.7993 37.0586C18.9879 36.4796 19.2221 35.9164 19.4996 35.3741L18.0709 33.5448C17.7911 33.191 17.6524 32.7468 17.6813 32.2974C17.7102 31.848 17.9047 31.425 18.2275 31.1097L20.1667 29.1761C20.4837 28.8566 20.908 28.6647 21.3583 28.6371C21.8086 28.6096 22.2532 28.7484 22.6071 29.027L24.4468 30.4513C24.9919 30.1747 25.5581 29.9416 26.1401 29.754L26.4346 27.4493C26.4887 27.0048 26.7041 26.5953 27.0403 26.2979C27.3764 26.0005 27.8101 25.8356 28.2598 25.8344H31.0176C31.4685 25.8347 31.9037 25.9996 32.2408 26.2978C32.5779 26.596 32.7936 27.0069 32.8471 27.4527L33.1415 29.7531C33.7235 29.9407 34.2898 30.1739 34.8348 30.4504L36.6745 29.027C37.0297 28.7489 37.4754 28.611 37.9264 28.6398C38.3773 28.6685 38.8017 28.8619 39.1184 29.1829L41.0576 31.1139C41.3779 31.4292 41.5703 31.851 41.5981 32.2986C41.6259 32.7462 41.4871 33.1884 41.2082 33.5406L39.7787 35.3733C40.0572 35.9151 40.2914 36.4784 40.479 37.0577L42.7935 37.3509C43.2398 37.4064 43.6504 37.6224 43.9481 37.9581C44.2459 38.2939 44.4102 38.7264 44.4102 39.1743V41.9204C44.4099 42.3694 44.2443 42.8027 43.9448 43.1384C43.6453 43.474 43.2327 43.6888 42.785 43.7421L40.4764 44.0344C40.2878 44.6133 40.0536 45.1765 39.7761 45.7188L41.2057 47.5507C41.4853 47.9042 41.624 48.3481 41.5951 48.7973C41.5662 49.2464 41.3718 49.669 41.0491 49.9841L39.115 51.916C38.7985 52.2353 38.3749 52.4271 37.9252 52.4547C37.4756 52.4824 37.0315 52.344 36.6779 52.066L34.8374 50.6425C34.2933 50.9198 33.7276 51.153 33.1458 51.3398L32.8513 53.6445C32.7967 54.0899 32.5803 54.4999 32.243 54.7974C31.9057 55.0949 31.4708 55.2592 31.0202 55.2594H31.0176ZM24.3804 49.3012C24.4855 49.3014 24.5888 49.3279 24.6808 49.3783C25.3718 49.7613 26.1047 50.0641 26.8651 50.2807C26.9804 50.3134 27.0835 50.3789 27.1618 50.4693C27.2402 50.5596 27.2902 50.6708 27.3059 50.7891L27.6505 53.486C27.6688 53.6346 27.7405 53.7716 27.8524 53.8716C27.9642 53.9716 28.1086 54.0278 28.2589 54.03H31.0168C31.166 54.028 31.3094 53.9725 31.4209 53.8737C31.5323 53.7748 31.6042 53.6393 31.6235 53.492L31.9698 50.7899C31.9855 50.6716 32.0355 50.5604 32.1138 50.4701C32.1922 50.3798 32.2953 50.3142 32.4106 50.2815C33.1709 50.065 33.9038 49.7622 34.5949 49.3792C34.7008 49.3198 34.8219 49.293 34.9431 49.3022C35.0643 49.3114 35.18 49.3562 35.2756 49.4309L37.4301 51.0983C37.5462 51.1914 37.6926 51.2386 37.8414 51.231C37.9902 51.2233 38.131 51.1613 38.2368 51.0568L40.188 49.114C40.2947 49.0087 40.3586 48.8678 40.3674 48.7185C40.3762 48.5691 40.3293 48.4218 40.2356 48.3048L38.561 46.1594C38.486 46.0642 38.441 45.949 38.4318 45.8283C38.4226 45.7077 38.4495 45.587 38.5091 45.4816C38.8938 44.7935 39.1978 44.0637 39.4153 43.3066C39.4482 43.1918 39.514 43.0891 39.6047 43.0111C39.6954 42.9331 39.8071 42.8833 39.9259 42.8677L42.6344 42.5245C42.7835 42.5058 42.9208 42.4341 43.0212 42.3227C43.1215 42.2112 43.1781 42.0675 43.1806 41.9178V39.1734C43.1786 39.0248 43.1229 38.882 43.0236 38.771C42.9244 38.6601 42.7883 38.5884 42.6403 38.5693L39.9267 38.2244C39.8079 38.2088 39.6963 38.159 39.6056 38.081C39.5148 38.003 39.449 37.9003 39.4162 37.7855C39.1987 37.0284 38.8946 36.2986 38.51 35.6105C38.4501 35.5052 38.4231 35.3844 38.4323 35.2637C38.4415 35.143 38.4866 35.0278 38.5619 34.9327L40.2348 32.7907C40.3284 32.6756 40.376 32.5301 40.3685 32.3821C40.361 32.2342 40.2988 32.0942 40.1939 31.9891L38.2428 30.0454C38.1374 29.9385 37.9959 29.8743 37.8456 29.8656C37.6954 29.8568 37.5473 29.904 37.4301 29.998L35.2756 31.6655C35.1799 31.7399 35.0642 31.7844 34.9431 31.7936C34.822 31.8028 34.7009 31.7762 34.5949 31.7172C33.904 31.3338 33.1711 31.031 32.4106 30.8148C32.2953 30.7821 32.1922 30.7165 32.1138 30.6262C32.0355 30.5359 31.9855 30.4247 31.9698 30.3064L31.6269 27.6061C31.6084 27.4573 31.5366 27.3201 31.4247 27.2198C31.3127 27.1196 31.1682 27.0629 31.0176 27.0604H28.2598C28.1106 27.0624 27.9671 27.1179 27.8557 27.2168C27.7442 27.3156 27.6723 27.4511 27.6531 27.5984L27.3068 30.3005C27.2907 30.4186 27.2405 30.5296 27.1622 30.6199C27.0839 30.7101 26.981 30.7758 26.866 30.8089C26.1053 31.0261 25.3724 31.3301 24.6817 31.7146C24.5759 31.7739 24.4548 31.8008 24.3337 31.7919C24.2126 31.783 24.0969 31.7387 24.0009 31.6646L21.849 29.9971C21.7333 29.9041 21.5872 29.8568 21.4387 29.8643C21.2901 29.8718 21.1496 29.9336 21.044 30.0378L19.092 31.9815C18.9852 32.0868 18.9213 32.2277 18.9125 32.377C18.9037 32.5264 18.9507 32.6737 19.0443 32.7907L20.7181 34.9361C20.7931 35.0313 20.8381 35.1465 20.8473 35.2671C20.8565 35.3878 20.8296 35.5085 20.77 35.6139C20.3848 36.3018 20.0807 37.0316 19.8638 37.7889C19.8309 37.9037 19.7651 38.0064 19.6744 38.0844C19.5837 38.1624 19.472 38.2122 19.3532 38.2278L16.6447 38.571C16.4955 38.5892 16.358 38.6606 16.2576 38.772C16.1572 38.8833 16.1006 39.0271 16.0985 39.1768V41.9229C16.1005 42.0715 16.1562 42.2144 16.2555 42.3253C16.3547 42.4363 16.4908 42.5079 16.6388 42.527L19.3524 42.8719C19.4712 42.8875 19.5828 42.9374 19.6735 43.0153C19.7643 43.0933 19.8301 43.196 19.8629 43.3108C20.0807 44.0668 20.3847 44.7954 20.7691 45.4824C20.829 45.5878 20.856 45.7085 20.8468 45.8292C20.8376 45.9499 20.7925 46.0652 20.7172 46.1603L19.0426 48.3022C18.949 48.4174 18.9014 48.5629 18.9089 48.7108C18.9164 48.8588 18.9786 48.9987 19.0835 49.1038L21.0346 51.0467C21.1403 51.1531 21.2818 51.2169 21.4318 51.2256C21.5819 51.2344 21.7298 51.1875 21.8473 51.0941L24.0018 49.4266C24.1112 49.3445 24.2443 49.2999 24.3813 49.2995L24.3804 49.3012Z" fill="#707070"/>
<path d="M29.6391 46.6771C28.4214 46.6771 27.2312 46.3176 26.2188 45.644C25.2063 44.9704 24.4173 44.0129 23.9513 42.8928C23.4853 41.7726 23.3634 40.5401 23.601 39.3509C23.8385 38.1618 24.4248 37.0695 25.2858 36.2121C26.1468 35.3548 27.2438 34.771 28.438 34.5344C29.6322 34.2979 30.8701 34.4193 31.995 34.8833C33.12 35.3472 34.0815 36.133 34.7579 37.1411C35.4344 38.1492 35.7955 39.3344 35.7955 40.5469C35.7937 42.1721 35.1445 43.7303 33.9903 44.8796C32.8362 46.0289 31.2713 46.6753 29.6391 46.6771ZM29.6391 35.6427C28.665 35.6427 27.7128 35.9303 26.9028 36.4692C26.0929 37.0081 25.4616 37.774 25.0889 38.6701C24.7161 39.5662 24.6185 40.5523 24.8086 41.5036C24.9986 42.4549 25.4677 43.3288 26.1565 44.0146C26.8453 44.7005 27.7228 45.1676 28.6782 45.3568C29.6336 45.546 30.6239 45.4489 31.5238 45.0777C32.4238 44.7065 33.193 44.078 33.7342 43.2715C34.2753 42.465 34.5642 41.5168 34.5642 40.5469C34.5628 39.2466 34.0435 38 33.1202 37.0806C32.1968 36.1611 30.9449 35.644 29.6391 35.6427Z" fill="#707070"/>
</svg>
